<svg width="132" height="133" viewBox="0 0 132 133" fill="none" xmlns="http://www.w3.org/2000/svg">
<g filter="url(#filter0_d_1_14)">
<path d="M81 28.5H51C45.4772 28.5 41 32.9772 41 38.5V68.5C41 74.0228 45.4772 78.5 51 78.5H81C86.5228 78.5 91 74.0228 91 68.5V38.5C91 32.9772 86.5228 28.5 81 28.5Z" fill="#FC0909"/>
<path d="M81 29H51C45.7533 29 41.5 33.2533 41.5 38.5V68.5C41.5 73.7467 45.7533 78 51 78H81C86.2467 78 90.5 73.7467 90.5 68.5V38.5C90.5 33.2533 86.2467 29 81 29Z" stroke="#08BA90" stroke-opacity="0.15"/>
<mask id="mask0_1_14" style="mask-type:luminance" maskUnits="userSpaceOnUse" x="53" y="40" width="26" height="27">
<path d="M79 40.5H53V66.5H79V40.5Z" fill="white"/>
</mask>
<g mask="url(#mask0_1_14)">
<path d="M56.4199 45.1568H57.2222L58.2193 64.0829C58.223 65.3322 59.237 66.344 60.4871 66.344H71.5852C72.8354 66.344 73.8494 65.3322 73.853 64.0828L74.8326 45.1568H75.5893H75.8393V44.9068V43.8979V43.6479H75.5893H70.7947V42.8889C70.7947 41.6366 69.7793 40.6211 68.5269 40.6211H63.4823C62.2299 40.6211 61.2145 41.6366 61.2145 42.8889V43.6479H56.4199H56.1699V43.8979V44.9068V45.1568H56.4199ZM58.7328 45.1568H73.322L72.3465 64.0078L72.3448 64.0303L72.3441 64.0399V64.0495V64.0761C72.3441 64.4939 72.0036 64.8351 71.5851 64.8351H60.4871C60.0695 64.8351 59.7282 64.4938 59.7282 64.0761V64.0495L59.728 64.0405L59.727 64.0139L59.7269 64.0098L58.7328 45.1568ZM62.7234 42.8889C62.7234 42.4705 63.0646 42.13 63.4823 42.13H68.5269C68.9455 42.13 69.2858 42.4703 69.2858 42.8889V43.6479H62.7234V42.8889Z" fill="white" stroke="white" stroke-width="0.5"/>
<path d="M66.7589 46.9238V46.6738H66.5089H65.5H65.25V46.9238V63.0664V63.3164H65.5H66.5089H66.7589V63.0664V46.9238Z" fill="white" stroke="white" stroke-width="0.5"/>
<path d="M63.5202 63.2844L63.7698 63.2685L63.7538 63.0189L62.7213 46.9078L62.7053 46.6585L62.4559 46.6743L61.449 46.7383L61.1994 46.7542L61.2154 47.0038L62.2479 63.1149L62.2639 63.3642L62.5133 63.3484L63.5202 63.2844Z" fill="white" stroke="white" stroke-width="0.5"/>
<path d="M70.8016 46.9713L70.8173 46.7217L70.5677 46.7061L69.5608 46.6431L69.3114 46.6275L69.2956 46.8768L68.2778 63.0194L68.2621 63.2691L68.5117 63.2847L69.5187 63.3477L69.7681 63.3633L69.7838 63.1139L70.8016 46.9713Z" fill="white" stroke="white" stroke-width="0.5"/>
</g>
</g>
<defs>
<filter id="filter0_d_1_14" x="0" y="0.5" width="132" height="132" filterUnits="userSpaceOnUse" color-interpolation-filters="sRGB">
<feFlood flood-opacity="0" result="BackgroundImageFix"/>
<feColorMatrix in="SourceAlpha" type="matrix" values="0 0 0 0 0 0 0 0 0 0 0 0 0 0 0 0 0 0 127 0" result="hardAlpha"/>
<feOffset dy="13"/>
<feGaussianBlur stdDeviation="20.5"/>
<feColorMatrix type="matrix" values="0 0 0 0 0.230573 0 0 0 0 0.232031 0 0 0 0 0.2375 0 0 0 0.105 0"/>
<feBlend mode="normal" in2="BackgroundImageFix" result="effect1_dropShadow_1_14"/>
<feBlend mode="normal" in="SourceGraphic" in2="effect1_dropShadow_1_14" result="shape"/>
</filter>
</defs>
</svg>
