<svg width="1157" height="847" viewBox="0 0 1157 847" fill="none" xmlns="http://www.w3.org/2000/svg">
<path d="M83.0005 165.089C14.0369 257.074 47.3425 409.355 116.872 489.624C153.658 532.091 175.838 525.929 212.031 579.129C251.419 636.46 247.566 676.101 293.625 722.616C301.416 730.342 329.968 758.071 369.482 772.477C477.393 811.741 535.4 702.955 663.941 715C767.761 724.642 778.39 800.31 885.873 797.719C902.77 797.338 985.871 793.501 1048.1 729.187C1121.07 653.777 1111.55 550.566 1108.7 526.685C1098.84 447.72 1059.87 439.212 1006.33 326.326C935.427 176.91 968.413 117.396 917.081 88.1278C834.641 41.2236 751.47 196.121 579.213 187.47C436.481 180.34 400.084 69.1217 252.825 83.1328C230.1 85.6447 136.171 94.4987 83.0005 165.089Z" fill="#E3F0E9"/>
<path d="M569.386 304.75C596.726 304.75 618.889 282.644 618.889 255.375C618.889 228.106 596.726 206 569.386 206C542.046 206 519.883 228.106 519.883 255.375C519.883 282.644 542.046 304.75 569.386 304.75Z" fill="#08BA90"/>
<path d="M429.849 640.001C403.658 640.001 377.506 639.533 351.393 638.598C314.081 637.261 275.498 635.879 239.637 616.041C214.55 602.165 192.333 579.901 175.386 551.656C164.059 532.512 155.753 511.743 150.761 490.078C141.449 450.635 141.766 409.538 151.686 370.242C155.162 356.769 159.955 343.669 165.994 331.129C192.146 277.113 239.846 240.854 296.863 231.649C297.334 231.588 297.81 231.578 298.283 231.619C298.539 231.632 298.795 231.647 299.055 231.636L299.391 231.53C300.251 231.232 301.134 231.005 302.032 230.854C389.967 217.797 482.926 244.216 570.855 307.253C638.841 356 728.941 382.249 846.306 387.501L847.972 387.588C880.644 389.46 912.247 402.895 939.369 426.443C966.139 449.684 986.238 480.691 997.495 516.116C998.879 520.434 1000.15 524.93 1001.27 529.477C1002.31 533.702 1002.23 538.125 1001.05 542.313C999.871 546.502 997.624 550.315 994.528 553.38V553.389L994.236 553.689C993.532 554.386 992.792 555.056 992.035 555.679L991.145 556.411C983.644 562.573 977.72 567.441 970.63 571.222C965.902 573.727 960.873 575.62 955.664 576.858C927.064 583.813 898.02 590.261 869.339 596.024C813.639 607.226 756.471 616.467 699.423 623.488C609.988 634.488 519.961 640.002 429.849 640.001ZM297.616 233.532C297.441 233.53 297.266 233.542 297.092 233.567C240.609 242.686 193.361 278.589 167.468 332.071C161.488 344.486 156.743 357.457 153.301 370.796C143.472 409.744 143.158 450.475 152.388 489.568C157.331 511.026 165.556 531.596 176.774 550.557C193.555 578.526 215.545 600.566 240.369 614.296C275.908 633.956 314.309 635.332 351.446 636.661C467.596 640.801 583.893 635.752 699.243 621.564C756.254 614.545 813.385 605.311 869.048 594.116C897.71 588.357 926.734 581.914 955.315 574.963C960.398 573.757 965.306 571.909 969.92 569.465C976.868 565.761 982.735 560.939 990.163 554.836L991.053 554.105C991.704 553.569 992.343 552.996 992.954 552.4L993.13 552.217C999.234 546.08 1001.61 537.983 999.643 530.003V530.002C998.536 525.504 997.281 521.056 995.912 516.782C972.917 444.417 913.432 393.277 847.891 389.523L846.234 389.436C792.624 387.036 745.71 380.39 702.82 369.114C651.618 355.655 606.919 335.394 569.962 308.895C482.369 246.1 389.797 219.779 302.247 232.774C301.429 232.915 300.624 233.123 299.841 233.396L299.236 233.565C298.893 233.58 298.548 233.576 298.205 233.552C298.003 233.542 297.807 233.532 297.616 233.532Z" fill="#3F3D56"/>
<path d="M682.472 353.082H552.612C550.768 353.077 549 352.345 547.696 351.044C546.392 349.743 545.657 347.981 545.652 346.141V283.029C545.657 281.19 546.392 279.427 547.696 278.127C549 276.826 550.767 276.093 552.611 276.088H682.471C684.315 276.093 686.082 276.825 687.386 278.126C688.69 279.426 689.425 281.189 689.43 283.028V346.141C689.426 347.98 688.691 349.743 687.387 351.043C686.083 352.344 684.316 353.077 682.472 353.082Z" fill="white"/>
<path d="M682.472 353.082H552.612C550.768 353.077 549 352.345 547.696 351.044C546.392 349.743 545.657 347.981 545.652 346.141V283.029C545.657 281.19 546.392 279.427 547.696 278.127C549 276.826 550.767 276.093 552.611 276.088H682.471C684.315 276.093 686.082 276.825 687.386 278.126C688.69 279.426 689.425 281.189 689.43 283.028V346.141C689.426 347.98 688.691 349.743 687.387 351.043C686.083 352.344 684.316 353.077 682.472 353.082ZM552.612 278.024C551.282 278.028 550.008 278.557 549.067 279.495C548.127 280.433 547.597 281.704 547.594 283.03V346.141C547.597 347.467 548.128 348.738 549.068 349.676C550.008 350.614 551.283 351.142 552.613 351.146H682.47C683.8 351.142 685.074 350.613 686.015 349.675C686.955 348.737 687.485 347.466 687.489 346.14V283.029C687.485 281.703 686.955 280.432 686.015 279.494C685.074 278.556 683.8 278.028 682.47 278.024L552.612 278.024Z" fill="#3F3D56"/>
<path d="M669.067 318.303H563.403C562.518 318.3 561.655 318.026 560.932 317.518C560.209 317.009 559.66 316.291 559.361 315.461L547.401 281.996C547.171 281.35 547.099 280.659 547.192 279.98C547.285 279.301 547.539 278.655 547.935 278.094C548.33 277.534 548.855 277.077 549.464 276.76C550.073 276.444 550.75 276.278 551.437 276.277L683.515 276.094C684.143 276.093 684.763 276.23 685.332 276.494C685.901 276.759 686.406 277.144 686.809 277.624C687.212 278.104 687.505 278.666 687.667 279.271C687.829 279.876 687.856 280.509 687.746 281.126L687.848 281.169L687.469 282.052L687.465 282.06L673.008 315.709C672.678 316.479 672.129 317.135 671.428 317.597C670.728 318.058 669.906 318.304 669.067 318.303ZM683.521 278.03L551.441 278.213C551.064 278.214 550.694 278.305 550.36 278.478C550.026 278.651 549.739 278.902 549.522 279.209C549.305 279.516 549.166 279.87 549.115 280.242C549.064 280.614 549.103 280.992 549.23 281.346L561.189 314.809C561.353 315.264 561.654 315.658 562.05 315.936C562.447 316.215 562.919 316.365 563.404 316.367H669.067C669.526 316.367 669.976 316.232 670.359 315.98C670.742 315.727 671.043 315.368 671.223 314.947L685.681 281.298C685.835 280.941 685.897 280.552 685.862 280.166C685.828 279.779 685.697 279.407 685.483 279.084C685.269 278.76 684.978 278.494 684.635 278.31C684.293 278.126 683.91 278.03 683.521 278.03Z" fill="#3F3D56"/>
<path d="M415.128 347.403C412.703 345.083 410.223 332.144 407.128 330.83C409.442 335.931 407.762 337.281 407.749 342.879C407.778 346.058 407.406 349.228 406.641 352.313H354.203V311.495C354.203 307.827 354.927 304.195 356.334 300.807C357.741 297.419 359.804 294.34 362.404 291.746C365.004 289.153 368.091 287.096 371.488 285.692C374.886 284.289 378.527 283.566 382.204 283.566C383.607 283.594 385.002 283.797 386.354 284.172C390.862 285.386 394.97 287.761 398.266 291.058C401.563 294.355 403.932 298.459 405.137 302.958C409.135 317.532 415.492 341.792 415.128 347.403Z" fill="#2F2E41"/>
<path d="M624.502 343.755C598.891 343.755 572.186 343.511 562.222 343.352C560.911 343.325 559.662 342.788 558.743 341.856C557.823 340.923 557.306 339.669 557.301 338.361V286.119C557.301 285.651 557.488 285.202 557.819 284.87C558.151 284.538 558.601 284.351 559.07 284.35H676.01C676.479 284.35 676.929 284.536 677.262 284.867C677.594 285.197 677.782 285.646 677.783 286.114V321.56C677.761 327.346 675.467 332.893 671.392 337.011C667.317 341.129 661.786 343.49 655.986 343.587C646.699 343.708 635.703 343.755 624.502 343.755Z" fill="#08BA90"/>
<path d="M388.543 312.244C388.166 310.355 387.211 308.628 385.811 307.302C385.949 309.113 385.697 310.931 385.072 312.636C380.394 313.05 375.694 312.121 371.527 309.96C368.389 307.836 364.395 308.021 359.742 309.96C359.742 307.703 360.187 305.468 361.053 303.383C361.919 301.297 363.188 299.403 364.788 297.807C366.389 296.211 368.288 294.945 370.379 294.081C372.47 293.218 374.711 292.773 376.973 292.773H380.05C384.62 292.774 389.003 294.585 392.234 297.808C395.465 301.031 397.281 305.402 397.282 309.96C394.442 310.976 391.518 311.74 388.543 312.244Z" fill="#2F2E41"/>
<path d="M392.251 322.366C389.82 325.587 386.362 327.886 382.446 328.884C378.531 329.883 374.39 329.522 370.708 327.86C367.025 326.198 364.02 323.335 362.187 319.742C360.354 316.149 359.802 312.041 360.622 308.093C361.443 304.146 363.587 300.595 366.701 298.025C369.815 295.455 373.714 294.02 377.755 293.955C381.797 293.891 385.74 295.201 388.935 297.67C392.13 300.139 394.387 303.62 395.333 307.539C395.384 307.752 395.428 307.964 395.47 308.183C395.97 310.64 395.941 313.174 395.386 315.619C394.832 318.064 393.763 320.363 392.251 322.366Z" fill="#FFB6B6"/>
<path d="M617.344 325.587C621.914 325.587 625.618 321.892 625.618 317.334C625.618 312.777 621.914 309.082 617.344 309.082C612.775 309.082 609.07 312.777 609.07 317.334C609.07 321.892 612.775 325.587 617.344 325.587Z" fill="white"/>
<path d="M387.435 331.443L371.742 331.75L360.665 343.413L351.784 344.712C347.767 345.3 344.073 347.245 341.321 350.222C338.569 353.2 336.925 357.029 336.664 361.071L338.203 369.5H347.434L352.774 400.773C350.697 406.051 350.556 410.217 354.818 411.853L368.05 436.712L407.128 419.219C409.109 415.82 409.744 412.407 407.719 409.088L410.512 361.213H419.906C419.906 352.259 416.869 344.711 407.948 343.714C404.405 343.332 400.845 343.129 397.281 343.106L387.435 331.443Z" fill="#E6E6E6"/>
<path d="M363.28 496.116H313.374C309.502 496.112 305.789 494.576 303.052 491.845C300.314 489.114 298.773 485.412 298.769 481.55V403.284C298.495 403.088 298.272 402.829 298.118 402.53C297.964 402.23 297.884 401.898 297.885 401.562V393.691C297.884 393.354 297.964 393.022 298.118 392.723C298.272 392.424 298.495 392.165 298.769 391.969V389.856C298.495 389.66 298.272 389.402 298.118 389.102C297.964 388.803 297.884 388.471 297.885 388.135V380.263C297.884 379.926 297.964 379.595 298.118 379.295C298.272 378.996 298.495 378.737 298.769 378.541V374.723C298.431 374.542 298.148 374.272 297.951 373.943C297.755 373.614 297.651 373.238 297.652 372.855V364.983C297.651 364.6 297.755 364.224 297.951 363.895C298.148 363.566 298.431 363.296 298.769 363.115V352.652C298.773 348.79 300.314 345.088 303.052 342.357C305.79 339.626 309.502 338.09 313.374 338.086H363.28C367.152 338.09 370.865 339.626 373.602 342.357C376.34 345.088 377.88 348.791 377.885 352.652V375.458C378.148 375.622 378.365 375.85 378.515 376.121C378.665 376.392 378.744 376.696 378.744 377.005V392.014C378.744 392.324 378.665 392.628 378.515 392.899C378.365 393.17 378.148 393.398 377.885 393.562V481.55C377.88 485.412 376.34 489.114 373.602 491.845C370.865 494.576 367.152 496.112 363.28 496.116ZM313.374 340.022C310.016 340.026 306.798 341.358 304.424 343.726C302.05 346.093 300.714 349.304 300.71 352.652V364.762L299.777 364.798C299.728 364.799 299.682 364.82 299.648 364.854C299.614 364.889 299.594 364.935 299.594 364.983V372.855C299.595 372.903 299.614 372.949 299.648 372.984C299.682 373.018 299.728 373.039 299.777 373.041L300.71 373.076V379.901L299.972 380.082C299.931 380.092 299.894 380.115 299.868 380.148C299.842 380.18 299.827 380.221 299.826 380.263V388.135C299.827 388.177 299.842 388.217 299.868 388.25C299.894 388.282 299.931 388.305 299.972 388.315L300.71 388.497V393.328L299.972 393.51C299.931 393.52 299.894 393.543 299.868 393.576C299.842 393.608 299.827 393.649 299.826 393.691V401.562C299.827 401.604 299.842 401.644 299.868 401.677C299.894 401.71 299.931 401.733 299.972 401.743L300.71 401.924V481.55C300.714 484.898 302.05 488.109 304.424 490.477C306.798 492.844 310.016 494.176 313.374 494.18H363.28C366.638 494.176 369.856 492.844 372.23 490.476C374.604 488.109 375.94 484.898 375.943 481.55V391.904H376.803V377.116H375.943V352.652C375.94 349.304 374.604 346.094 372.23 343.726C369.856 341.358 366.638 340.026 363.28 340.022L313.374 340.022Z" fill="#3F3D56"/>
<path d="M378.522 345.655V486.868C378.517 488.873 377.747 490.795 376.381 492.213C375.015 493.631 373.164 494.43 371.232 494.436H304.943C303.011 494.43 301.16 493.632 299.794 492.214C298.427 490.796 297.658 488.874 297.652 486.869V345.656C297.657 343.65 298.427 341.728 299.793 340.31C301.159 338.892 303.01 338.093 304.942 338.088H371.231C373.163 338.093 375.014 338.892 376.381 340.31C377.747 341.728 378.517 343.649 378.522 345.655Z" fill="white"/>
<path d="M330.654 343.917C330.655 343.61 330.777 343.316 330.995 343.099C331.212 342.882 331.507 342.76 331.815 342.76H339.707C340.014 342.761 340.308 342.883 340.525 343.1C340.742 343.317 340.864 343.611 340.864 343.917C340.864 344.224 340.742 344.518 340.525 344.735C340.308 344.952 340.014 345.074 339.707 345.075H331.815C331.507 345.075 331.212 344.952 330.995 344.735C330.777 344.518 330.655 344.224 330.654 343.917Z" fill="#3F3D56"/>
<path d="M344.116 345.075C344.757 345.075 345.276 344.557 345.276 343.917C345.276 343.278 344.757 342.76 344.116 342.76C343.475 342.76 342.955 343.278 342.955 343.917C342.955 344.557 343.475 345.075 344.116 345.075Z" fill="#3F3D56"/>
<path d="M369.425 361.122V473.083C369.425 475.409 368.505 477.641 366.865 479.294C365.225 480.947 362.998 481.888 360.666 481.912C360.634 481.915 360.602 481.917 360.569 481.916H347.504C337.051 481.916 327.026 477.774 319.634 470.402C312.242 463.029 308.09 453.03 308.09 442.603V361.122C308.09 358.779 309.023 356.533 310.684 354.876C312.344 353.22 314.597 352.289 316.945 352.289H322.239C319.787 359.425 353.072 362.429 354.9 352.289H360.569C362.918 352.289 365.17 353.22 366.831 354.876C368.492 356.533 369.425 358.779 369.425 361.122Z" fill="#08BA90"/>
<path d="M419.435 390.251L419.461 358.436L400.71 360.107L407.328 380.173L383.307 416.492C381.805 416.828 380.434 417.593 379.36 418.693C378.286 419.793 377.556 421.182 377.26 422.688C376.963 424.195 377.113 425.755 377.69 427.179C378.267 428.602 379.247 429.827 380.51 430.705C381.773 431.582 383.265 432.074 384.804 432.121C386.343 432.167 387.862 431.766 389.176 430.967C390.49 430.167 391.543 429.003 392.205 427.617C392.867 426.231 393.111 424.683 392.907 423.161L419.435 390.251Z" fill="#FFB6B6"/>
<path d="M357.279 397.616L357.305 365.801L338.554 367.472L345.172 387.538L342.075 437.975C340.573 438.311 339.201 439.076 338.127 440.176C337.054 441.276 336.324 442.664 336.027 444.171C335.731 445.678 335.88 447.238 336.457 448.662C337.035 450.085 338.015 451.31 339.278 452.188C340.541 453.065 342.033 453.558 343.572 453.604C345.11 453.651 346.629 453.249 347.944 452.45C349.258 451.65 350.31 450.486 350.973 449.1C351.635 447.714 351.879 446.166 351.674 444.644L357.279 397.616Z" fill="#FFB6B6"/>
<path d="M868.753 408.67L846.651 386.897C844.476 384.744 841.533 383.539 838.469 383.547H838.401C836.869 383.553 835.354 383.862 833.943 384.455C832.532 385.048 831.253 385.914 830.179 387.003C826.094 391.142 823.445 396.476 822.62 402.226C821.796 407.975 822.839 413.837 825.598 418.952L825.608 418.961C826.746 421.054 828.159 422.984 829.81 424.703C829.995 424.916 830.208 425.128 830.422 425.341C835.497 430.367 842.363 433.18 849.515 433.164H849.689C853.26 433.149 856.793 432.429 860.083 431.045C863.374 429.66 866.356 427.64 868.86 425.099C869.934 424.014 870.784 422.728 871.36 421.314C871.936 419.901 872.228 418.388 872.218 416.863C872.208 415.337 871.897 413.828 871.302 412.423C870.708 411.017 869.841 409.742 868.753 408.67ZM867.472 423.744C865.148 426.101 862.38 427.977 859.326 429.261C856.272 430.545 852.994 431.214 849.68 431.228H849.515C844.537 431.226 839.672 429.756 835.53 427.003C831.388 424.251 828.155 420.338 826.237 415.757C824.318 411.176 823.801 406.132 824.75 401.259C825.698 396.385 828.07 391.9 831.567 388.368C833.377 386.543 835.838 385.509 838.412 385.493C840.985 385.477 843.459 386.479 845.292 388.281L867.394 410.045C869.222 411.853 870.257 414.31 870.272 416.879C870.286 419.447 869.279 421.916 867.472 423.744Z" fill="#3F3D56"/>
<path d="M870.17 415.509L845.804 391.505C844.206 389.935 842.049 389.06 839.805 389.074C837.562 389.088 835.416 389.989 833.838 391.579C831.864 393.569 830.302 395.926 829.242 398.518C828.182 401.11 827.645 403.884 827.66 406.683C827.676 409.482 828.245 412.251 829.334 414.83C830.424 417.41 832.012 419.75 834.009 421.717C836.005 423.684 838.371 425.239 840.971 426.293C843.57 427.348 846.353 427.881 849.159 427.862C851.965 427.843 854.74 427.272 857.325 426.183C859.91 425.094 862.254 423.507 864.224 421.513L870.17 415.509Z" fill="#08BA90"/>
<path d="M407.127 419.219C407.127 419.219 368.972 425.971 354.818 411.854C354.818 411.854 353.381 414.287 351.215 418.322C350.593 419.483 349.39 420.269 348.664 421.675C348.004 422.952 346.306 424.523 345.587 425.972C345.008 427.137 345.936 428.661 345.334 429.92C338.086 445.085 329.617 466.476 331.433 480.601C332.603 489.71 335.022 510.905 337.569 533.67C337.768 535.449 336.156 537.734 336.356 539.527C336.544 541.217 338.545 542.415 338.733 544.11C338.859 545.235 337.462 546.382 337.587 547.506C337.724 548.739 339.382 549.948 339.519 551.176C343.008 582.61 346.202 611.957 346.202 611.957H364.049L367.416 544.931L364.664 520.498L371.126 471.087L380.049 518.043L381.197 544.471L390.627 613.184H407.127V546.665L408.358 543.21L407.127 538.778L408.358 534.002L407.127 528.802V419.219Z" fill="#2F2E41"/>
<path d="M915.906 501.892L915.324 503.422C912.587 502.386 909.933 501.347 907.364 500.305C861.86 481.784 840.137 460.107 825.607 418.961L825.597 418.952C824.908 417.015 824.238 415.034 823.588 413.007L825.122 412.514C825.634 414.463 826.384 416.342 827.354 418.11C828.15 420.365 828.969 422.563 829.81 424.703C843.467 459.43 863.608 479.277 902.22 496.035C904.161 496.877 906.151 497.713 908.189 498.543C910.556 500.081 913.165 501.213 915.906 501.892Z" fill="#3F3D56"/>
<path d="M846.245 431.401L844.881 432.779L895.294 482.443L896.659 481.065L846.245 431.401Z" fill="#3F3D56"/>
<path d="M253.925 531.295C281.265 531.295 303.428 509.189 303.428 481.92C303.428 454.651 281.265 432.545 253.925 432.545C226.585 432.545 204.422 454.651 204.422 481.92C204.422 509.189 226.585 531.295 253.925 531.295Z" fill="#08BA90"/>
<path d="M962.497 539.039C989.837 539.039 1012 516.933 1012 489.664C1012 462.395 989.837 440.289 962.497 440.289C935.157 440.289 912.994 462.395 912.994 489.664C912.994 516.933 935.157 539.039 962.497 539.039Z" fill="#08BA90"/>
<path d="M339.077 469.013C343.646 469.013 347.35 465.318 347.35 460.76C347.35 456.203 343.646 452.508 339.077 452.508C334.507 452.508 330.803 456.203 330.803 460.76C330.803 465.318 334.507 469.013 339.077 469.013Z" fill="white"/>
<path d="M941.268 480.1L919.167 458.336C918.091 457.268 916.814 456.423 915.41 455.848C914.006 455.273 912.502 454.98 910.984 454.986H910.907C909.377 454.991 907.864 455.298 906.455 455.889C905.045 456.481 903.767 457.346 902.695 458.433C897.753 463.421 894.942 470.126 894.854 477.139C894.765 484.151 897.405 490.924 902.219 496.036C902.452 496.287 902.695 496.529 902.938 496.771C904.282 498.104 905.766 499.289 907.364 500.305C911.733 503.121 916.828 504.611 922.03 504.594H922.195C925.766 504.582 929.299 503.864 932.589 502.481C935.88 501.098 938.863 499.079 941.366 496.539C943.534 494.344 944.742 491.381 944.724 488.299C944.706 485.218 943.463 482.269 941.268 480.1ZM939.987 495.174C935.884 499.297 930.481 501.883 924.689 502.497C918.896 503.111 913.069 501.714 908.189 498.543C906.793 497.622 905.489 496.568 904.297 495.397C899.534 490.705 896.835 484.319 896.793 477.643C896.752 470.967 899.37 464.548 904.073 459.798C904.967 458.889 906.034 458.167 907.21 457.674C908.387 457.18 909.65 456.925 910.926 456.923H910.984C912.248 456.918 913.5 457.162 914.669 457.641C915.839 458.119 916.902 458.823 917.798 459.711L939.9 481.484C941.73 483.289 942.766 485.744 942.783 488.311C942.799 490.878 941.794 493.346 939.987 495.174Z" fill="#3F3D56"/>
<path d="M942.682 486.942L918.315 462.939C916.717 461.368 914.56 460.494 912.317 460.508C910.074 460.522 907.928 461.423 906.35 463.013C904.375 465.002 902.814 467.36 901.754 469.952C900.694 472.543 900.156 475.318 900.172 478.117C900.188 480.916 900.757 483.684 901.846 486.264C902.935 488.844 904.524 491.184 906.52 493.151C908.517 495.117 910.883 496.673 913.482 497.727C916.082 498.781 918.864 499.314 921.671 499.295C924.477 499.276 927.252 498.706 929.837 497.617C932.422 496.527 934.766 494.94 936.736 492.947L942.682 486.942Z" fill="#08BA90"/>
<path d="M350.38 624.972L357.956 624.971L361.559 595.828H350.379L350.38 624.972Z" fill="#FFB6B6"/>
<path d="M394.18 624.972L401.755 624.971L405.359 595.828H394.178L394.18 624.972Z" fill="#FFB6B6"/>
<path d="M347.815 621.244L359.79 620.531V625.649L371.174 633.491C371.737 633.878 372.16 634.435 372.383 635.079C372.606 635.723 372.617 636.422 372.413 637.073C372.21 637.724 371.803 638.292 371.253 638.696C370.702 639.1 370.037 639.318 369.353 639.318H355.097L352.639 634.256L351.68 639.318H346.305L347.815 621.244Z" fill="#2F2E41"/>
<path d="M391.615 621.244L403.59 620.531V625.649L414.975 633.491C415.538 633.878 415.961 634.435 416.184 635.079C416.407 635.723 416.417 636.422 416.214 637.073C416.011 637.724 415.604 638.292 415.054 638.696C414.503 639.1 413.838 639.318 413.154 639.318H398.898L396.44 634.256L395.481 639.318H390.105L391.615 621.244Z" fill="#2F2E41"/>
</svg>
