<svg width="1157" height="847" viewBox="0 0 1157 847" fill="none" xmlns="http://www.w3.org/2000/svg">
<path d="M83.0005 165.089C14.0369 257.073 47.3425 409.355 116.872 489.624C153.658 532.091 175.838 525.929 212.031 579.128C251.419 636.46 247.566 676.1 293.625 722.616C301.416 730.342 329.968 758.07 369.482 772.477C477.393 811.741 535.4 702.955 663.941 715C767.761 724.642 778.39 800.309 885.873 797.719C902.77 797.338 985.871 793.501 1048.1 729.186C1121.07 653.777 1111.55 550.566 1108.7 526.685C1098.84 447.72 1059.87 439.211 1006.33 326.326C935.427 176.909 968.413 117.396 917.081 88.1275C834.641 41.2232 751.47 196.121 579.213 187.47C436.481 180.34 400.084 69.1213 252.825 83.1324C230.1 85.6444 136.171 94.4984 83.0005 165.089Z" fill="#E3F0E9"/>
<path d="M660.977 244.429C657.237 240.851 653.411 220.9 648.636 218.875C652.206 226.74 649.614 228.822 649.595 237.453C649.64 242.355 649.066 247.242 647.886 252H567V189.062C567 183.407 568.117 177.808 570.287 172.583C572.458 167.358 575.639 162.611 579.65 158.612C583.661 154.614 588.422 151.442 593.663 149.278C598.903 147.114 604.519 146 610.191 146C612.356 146.042 614.507 146.356 616.593 146.934C623.546 148.806 629.882 152.467 634.968 157.551C640.053 162.635 643.708 168.963 645.566 175.9C651.732 198.371 661.539 235.776 660.977 244.429Z" fill="#2F2E41"/>
<path d="M629.003 674L640.52 673.998L646 629H629L629.003 674Z" fill="#FFB6B6"/>
<path d="M625.3 668.1L643.545 667V674.899L660.891 687.005C661.748 687.603 662.394 688.462 662.733 689.457C663.073 690.451 663.089 691.53 662.779 692.534C662.469 693.539 661.849 694.417 661.011 695.04C660.172 695.664 659.158 696 658.117 696H636.396L632.652 688.186L631.19 696H623L625.3 668.1Z" fill="#2F2E41"/>
<path d="M561.001 674L572.521 673.998L578 629H561L561.001 674Z" fill="#FFB6B6"/>
<path d="M557.301 668.1L575.546 667V674.899L592.891 687.005C593.748 687.603 594.394 688.462 594.733 689.457C595.073 690.451 595.089 691.53 594.779 692.534C594.469 693.539 593.849 694.417 593.011 695.04C592.172 695.664 591.158 696 590.117 696H568.396L564.652 688.186L563.19 696H555L557.301 668.1Z" fill="#2F2E41"/>
<path d="M618.68 220L594.36 220.475L577.194 238.534L563.431 240.545C557.206 241.455 551.482 244.467 547.217 249.078C542.953 253.688 540.405 259.618 540 265.875L542.384 278.927H556.69L564.965 327.352C561.747 335.523 561.529 341.974 568.134 344.507L588.638 383L649.198 355.913C652.269 350.651 653.253 345.365 650.114 340.226L654.443 266.096H669C669 252.232 664.294 240.543 650.469 239C644.978 238.408 639.461 238.094 633.939 238.058L618.68 220Z" fill="#E6E6E6"/>
<path d="M649.086 355.415C649.086 355.415 589.758 365.878 567.749 344C567.749 344 565.515 347.771 562.148 354.024C561.18 355.823 559.31 357.041 558.18 359.219C557.154 361.199 554.514 363.633 553.396 365.879C552.496 367.685 553.939 370.046 553.003 371.997C541.732 395.498 528.564 428.647 531.387 450.537C533.208 464.653 536.968 497.499 540.928 532.778C541.237 535.534 538.731 539.075 539.042 541.854C539.336 544.473 542.446 546.33 542.739 548.956C542.934 550.699 540.762 552.478 540.956 554.219C541.169 556.13 543.749 558.003 543.961 559.906C549.386 608.619 554.353 654.097 554.353 654.097H582.103L587.339 550.228L583.06 512.366L593.107 435.793L606.982 508.561L608.767 549.515L623.431 656H649.086V552.916L651 547.561L649.086 540.693L651 533.293L649.086 525.233V355.415Z" fill="#2F2E41"/>
<path d="M625.475 206.039C621.717 211.032 616.37 214.595 610.316 216.143C604.261 217.691 597.86 217.131 592.166 214.555C586.473 211.979 581.826 207.542 578.992 201.973C576.157 196.404 575.304 190.036 576.573 183.917C577.841 177.799 581.156 172.295 585.971 168.311C590.786 164.328 596.814 162.103 603.063 162.003C609.311 161.904 615.407 163.934 620.347 167.761C625.287 171.588 628.776 176.984 630.24 183.058C630.319 183.388 630.386 183.716 630.451 184.056C631.224 187.864 631.18 191.792 630.323 195.582C629.465 199.371 627.813 202.936 625.475 206.039Z" fill="#FFB6B6"/>
<path d="M620.498 190.241C619.915 187.307 618.441 184.626 616.277 182.566C616.49 185.378 616.101 188.203 615.136 190.851C607.907 191.493 600.647 190.051 594.208 186.694C589.359 183.396 583.188 183.682 576 186.694C576 183.189 576.688 179.717 578.026 176.478C579.363 173.239 581.324 170.297 583.797 167.818C586.269 165.339 589.204 163.372 592.434 162.031C595.664 160.69 599.127 160 602.623 160H607.377C614.438 160.001 621.208 162.814 626.201 167.82C631.193 172.826 633.999 179.615 634 186.694C629.612 188.272 625.094 189.459 620.498 190.241Z" fill="#2F2E41"/>
<path d="M667.96 311.22L668 262L638.778 264.585L649.091 295.629L611.656 351.815C609.315 352.336 607.178 353.519 605.504 355.221C603.831 356.923 602.694 359.071 602.231 361.402C601.769 363.732 602.002 366.146 602.902 368.348C603.801 370.55 605.328 372.446 607.297 373.804C609.266 375.161 611.591 375.922 613.989 375.994C616.387 376.066 618.754 375.446 620.802 374.209C622.85 372.971 624.49 371.171 625.523 369.027C626.555 366.882 626.935 364.487 626.616 362.133L667.96 311.22Z" fill="#FFB6B6"/>
<path d="M577 241.005V632.993C576.986 638.559 574.864 643.894 571.097 647.83C567.331 651.767 562.225 653.985 556.898 654H374.105C368.777 653.986 363.672 651.768 359.905 647.832C356.137 643.896 354.014 638.562 354 632.995V241.007C354.014 235.441 356.136 230.106 359.903 226.17C363.67 222.233 368.775 220.015 374.102 220H556.895C562.223 220.014 567.328 222.232 571.095 226.168C574.863 230.104 576.986 235.438 577 241.005Z" fill="white"/>
<path d="M552 283.598V595.401C552.001 601.878 549.452 608.093 544.906 612.697C540.361 617.3 534.186 619.921 527.724 619.988C527.635 619.998 527.545 620.001 527.455 619.999H491.244C462.271 619.999 434.484 608.465 413.997 587.933C393.51 567.401 382 539.554 382 510.517V283.598C382 277.074 384.586 270.818 389.189 266.205C393.792 261.592 400.035 259 406.545 259H421.218C414.42 278.873 506.676 287.239 511.741 259H527.455C533.965 259 540.208 261.592 544.811 266.205C549.414 270.818 552 277.074 552 283.598Z" fill="#08BA90"/>
<path d="M424.255 375.614L414.491 378.178L412.05 369H410.802L408.361 378.178L398.597 375.614L398 376.564L405.682 383.89L398 391.216L398.597 392.227L408.361 389.669L410.802 398.78H412.05L414.491 389.669L424.255 392.227L424.852 391.216L417.169 383.89L424.852 376.564L424.255 375.614Z" fill="white"/>
<path d="M461.106 375.614L451.342 378.178L448.901 369H447.653L445.212 378.178L435.448 375.614L434.852 376.564L442.534 383.89L434.852 391.216L435.448 392.227L445.212 389.669L447.653 398.78H448.901L451.342 389.669L461.106 392.227L461.703 391.216L454.021 383.89L461.703 376.564L461.106 375.614Z" fill="white"/>
<path d="M497.958 375.614L488.194 378.178L485.753 369H484.505L482.064 378.178L472.3 375.614L471.703 376.564L479.385 383.89L471.703 391.216L472.3 392.227L482.064 389.669L484.505 398.78H485.753L488.194 389.669L497.958 392.227L498.555 391.216L490.872 383.89L498.555 376.564L497.958 375.614Z" fill="white"/>
<path d="M534.81 375.614L525.046 378.178L522.604 369H521.357L518.915 378.178L509.151 375.614L508.555 376.564L516.237 383.89L508.555 391.216L509.151 392.227L518.915 389.669L521.357 398.78H522.604L525.046 389.669L534.81 392.227L535.406 391.216L527.724 383.89L535.406 376.564L534.81 375.614Z" fill="white"/>
<path d="M445 237.5C445.001 236.837 445.325 236.202 445.9 235.733C446.475 235.264 447.255 235.001 448.069 235H468.94C469.752 235.002 470.531 235.266 471.104 235.735C471.678 236.203 472 236.838 472 237.5C472 238.162 471.678 238.797 471.104 239.265C470.531 239.734 469.752 239.998 468.94 240H448.069C447.255 239.999 446.475 239.736 445.9 239.267C445.325 238.798 445.001 238.163 445 237.5Z" fill="#3F3D56"/>
<path d="M534.475 659H397.233C386.585 658.988 376.377 654.721 368.848 647.135C361.318 639.549 357.083 629.263 357.071 618.535V401.117C356.317 400.572 355.703 399.853 355.28 399.021C354.857 398.189 354.637 397.268 354.639 396.333V374.467C354.637 373.532 354.857 372.611 355.28 371.779C355.703 370.947 356.317 370.229 357.071 369.684V363.815C356.317 363.27 355.703 362.552 355.28 361.72C354.857 360.889 354.637 359.967 354.639 359.033V337.165C354.637 336.231 354.857 335.309 355.28 334.477C355.703 333.646 356.317 332.928 357.071 332.383V321.776C356.14 321.272 355.363 320.523 354.822 319.609C354.281 318.695 353.997 317.65 354 316.586V294.72C353.997 293.655 354.281 292.61 354.822 291.696C355.363 290.782 356.14 290.033 357.071 289.529V260.465C357.083 249.736 361.318 239.451 368.848 231.865C376.377 224.279 386.585 220.012 397.233 220H534.475C545.122 220.012 555.331 224.279 562.86 231.865C570.389 239.451 574.624 249.737 574.636 260.465V323.818C575.359 324.274 575.955 324.907 576.369 325.659C576.783 326.411 577 327.256 577 328.116V369.81C577 370.67 576.783 371.515 576.369 372.268C575.955 373.02 575.359 373.653 574.636 374.11V618.535C574.624 629.263 570.389 639.549 562.86 647.135C555.331 654.721 545.122 658.988 534.475 659ZM397.233 225.379C388 225.389 379.149 229.089 372.621 235.667C366.092 242.244 362.42 251.163 362.409 260.465V294.104L359.841 294.204C359.708 294.209 359.581 294.265 359.488 294.361C359.394 294.457 359.341 294.585 359.338 294.72V316.586C359.341 316.72 359.395 316.849 359.488 316.945C359.582 317.04 359.708 317.097 359.841 317.102L362.409 317.201V336.159L360.378 336.663C360.266 336.691 360.166 336.755 360.093 336.846C360.021 336.936 359.98 337.049 359.977 337.165V359.033C359.98 359.149 360.021 359.262 360.093 359.352C360.166 359.443 360.266 359.507 360.378 359.534L362.409 360.039V373.461L360.378 373.965C360.266 373.992 360.166 374.056 360.093 374.147C360.021 374.238 359.98 374.35 359.977 374.467V396.333C359.979 396.45 360.02 396.562 360.093 396.653C360.165 396.744 360.266 396.808 360.378 396.836L362.409 397.34V618.535C362.42 627.837 366.092 636.756 372.621 643.333C379.149 649.911 388 653.611 397.233 653.621H534.475C543.707 653.61 552.558 649.91 559.086 643.333C565.614 636.755 569.287 627.837 569.297 618.535V369.504H571.662V328.423H569.297V260.465C569.287 251.163 565.614 242.245 559.086 235.667C552.558 229.089 543.707 225.389 534.475 225.379L397.233 225.379Z" fill="#3F3D56"/>
<path d="M482.5 240C483.881 240 485 238.881 485 237.5C485 236.119 483.881 235 482.5 235C481.119 235 480 236.119 480 237.5C480 238.881 481.119 240 482.5 240Z" fill="#3F3D56"/>
<path d="M467.5 584C479.926 584 490 573.479 490 560.5C490 547.521 479.926 537 467.5 537C455.074 537 445 547.521 445 560.5C445 573.479 455.074 584 467.5 584Z" fill="white"/>
</svg>
