<svg width="932" height="718" viewBox="0 0 932 718" fill="none" xmlns="http://www.w3.org/2000/svg">
<path d="M-106.663 85.7076C-176.338 177.565 -142.689 329.634 -72.4415 409.791C-35.2756 452.199 -12.8666 446.045 23.6995 499.171C63.4938 556.423 59.6008 596.008 106.136 642.459C114.007 650.174 142.854 677.864 182.776 692.25C291.801 731.46 350.406 622.825 480.274 634.853C585.166 644.482 595.905 720.044 704.497 717.457C721.569 717.077 805.527 713.245 868.397 649.021C942.123 573.715 932.499 470.648 929.62 446.8C919.659 367.945 880.294 359.449 826.196 246.72C754.563 97.5121 787.889 38.0809 736.027 8.85347C652.736 -37.9855 568.707 116.696 394.672 108.057C250.466 100.937 213.694 -10.1262 64.9146 3.86542C41.9555 6.37383 -52.9431 15.2155 -106.663 85.7076Z" fill="#E3F0E9"/>
<path d="M481.977 202.429C478.237 198.851 474.411 178.9 469.636 176.875C473.206 184.74 470.614 186.822 470.595 195.453C470.64 200.355 470.066 205.242 468.886 210H388V147.062C388 141.407 389.117 135.808 391.287 130.583C393.458 125.358 396.639 120.611 400.65 116.612C404.661 112.614 409.422 109.442 414.663 107.278C419.903 105.114 425.519 104 431.191 104C433.356 104.042 435.507 104.356 437.593 104.934C444.546 106.806 450.882 110.467 455.968 115.551C461.053 120.635 464.708 126.963 466.566 133.9C472.732 156.371 482.539 193.776 481.977 202.429Z" fill="#2F2E41"/>
<path d="M450.003 632L461.52 631.998L467 587H450L450.003 632Z" fill="#FFB6B6"/>
<path d="M446.3 626.1L464.545 625V632.899L481.891 645.005C482.748 645.603 483.394 646.462 483.733 647.457C484.073 648.451 484.089 649.53 483.779 650.534C483.469 651.539 482.849 652.417 482.011 653.04C481.172 653.664 480.158 654 479.117 654H457.396L453.652 646.186L452.19 654H444L446.3 626.1Z" fill="#2F2E41"/>
<path d="M382.001 632L393.521 631.998L399 587H382L382.001 632Z" fill="#FFB6B6"/>
<path d="M378.301 626.1L396.546 625V632.899L413.891 645.005C414.748 645.603 415.394 646.462 415.733 647.457C416.073 648.451 416.089 649.53 415.779 650.534C415.469 651.539 414.849 652.417 414.011 653.04C413.172 653.664 412.158 654 411.117 654H389.396L385.652 646.186L384.19 654H376L378.301 626.1Z" fill="#2F2E41"/>
<path d="M439.68 178L415.36 178.475L398.194 196.534L384.431 198.545C378.206 199.455 372.482 202.467 368.217 207.078C363.953 211.688 361.405 217.618 361 223.875L363.384 236.927H377.69L385.965 285.352C382.747 293.523 382.529 299.974 389.134 302.507L409.638 341L470.198 313.913C473.269 308.651 474.253 303.365 471.114 298.226L475.443 224.096H490C490 210.232 485.294 198.543 471.469 197C465.978 196.408 460.461 196.094 454.939 196.058L439.68 178Z" fill="#E6E6E6"/>
<path d="M470.086 313.415C470.086 313.415 410.758 323.878 388.749 302C388.749 302 386.515 305.771 383.148 312.024C382.18 313.823 380.31 315.041 379.18 317.219C378.154 319.199 375.514 321.633 374.396 323.879C373.496 325.685 374.939 328.046 374.003 329.997C362.732 353.498 349.564 386.647 352.387 408.537C354.208 422.653 357.968 455.499 361.928 490.778C362.237 493.535 359.731 497.075 360.042 499.854C360.336 502.473 363.446 504.33 363.739 506.956C363.934 508.7 361.762 510.478 361.956 512.219C362.169 514.13 364.749 516.003 364.961 517.906C370.386 566.619 375.353 612.098 375.353 612.098H403.103L408.339 508.228L404.06 470.366L414.107 393.793L427.982 466.561L429.767 507.515L444.431 614H470.086V510.916L472 505.561L470.086 498.693L472 491.293L470.086 483.234V313.415Z" fill="#2F2E41"/>
<path d="M446.475 164.039C442.717 169.032 437.37 172.595 431.316 174.143C425.261 175.691 418.86 175.131 413.166 172.555C407.473 169.979 402.826 165.542 399.992 159.973C397.157 154.404 396.304 148.036 397.573 141.917C398.841 135.799 402.156 130.295 406.971 126.311C411.786 122.328 417.814 120.104 424.063 120.004C430.311 119.904 436.407 121.934 441.347 125.761C446.287 129.588 449.776 134.984 451.24 141.059C451.319 141.388 451.386 141.716 451.451 142.056C452.224 145.864 452.18 149.792 451.323 153.582C450.465 157.371 448.813 160.936 446.475 164.039Z" fill="#FFB6B6"/>
<path d="M441.498 148.241C440.915 145.307 439.441 142.626 437.277 140.566C437.49 143.378 437.101 146.203 436.136 148.851C428.907 149.493 421.647 148.051 415.208 144.694C410.359 141.396 404.188 141.682 397 144.694C397 141.189 397.688 137.717 399.026 134.478C400.363 131.239 402.324 128.297 404.797 125.818C407.269 123.339 410.204 121.372 413.434 120.031C416.664 118.69 420.127 118 423.623 118H428.377C435.438 118.001 442.208 120.814 447.201 125.82C452.193 130.826 454.999 137.615 455 144.694C450.612 146.272 446.094 147.459 441.498 148.241Z" fill="#2F2E41"/>
<path d="M488.96 269.22L489 220L459.778 222.586L470.091 253.629L432.656 309.815C430.315 310.336 428.178 311.519 426.504 313.221C424.831 314.923 423.694 317.071 423.231 319.402C422.769 321.732 423.002 324.146 423.902 326.348C424.801 328.55 426.328 330.446 428.297 331.804C430.266 333.161 432.591 333.922 434.989 333.994C437.387 334.066 439.754 333.446 441.802 332.209C443.85 330.971 445.49 329.171 446.523 327.027C447.555 324.883 447.935 322.487 447.616 320.133L488.96 269.22Z" fill="#FFB6B6"/>
<path d="M398 199.005V590.993C397.986 596.559 395.864 601.894 392.097 605.83C388.331 609.767 383.225 611.985 377.898 612H195.105C189.777 611.986 184.672 609.768 180.905 605.832C177.137 601.896 175.014 596.562 175 590.995V199.007C175.014 193.441 177.136 188.106 180.903 184.17C184.67 180.233 189.775 178.015 195.102 178H377.895C383.223 178.014 388.328 180.232 392.095 184.168C395.863 188.104 397.986 193.438 398 199.005Z" fill="white"/>
<path d="M373 241.598V553.401C373.001 559.878 370.452 566.093 365.906 570.697C361.361 575.301 355.186 577.921 348.724 577.988C348.635 577.998 348.545 578.001 348.455 578H312.244C283.271 578 255.484 566.465 234.997 545.933C214.51 525.401 203 497.554 203 468.517V241.598C203 235.074 205.586 228.818 210.189 224.205C214.792 219.592 221.035 217 227.545 217H242.218C235.42 236.873 327.676 245.239 332.741 217H348.455C354.965 217 361.208 219.592 365.811 224.205C370.414 228.818 373 235.075 373 241.598Z" fill="#08BA90"/>
<path d="M245.255 333.614L235.491 336.178L233.05 327H231.802L229.361 336.178L219.597 333.614L219 334.564L226.682 341.89L219 349.216L219.597 350.227L229.361 347.669L231.802 356.78H233.05L235.491 347.669L245.255 350.227L245.852 349.216L238.169 341.89L245.852 334.564L245.255 333.614Z" fill="white"/>
<path d="M282.106 333.614L272.342 336.178L269.901 327H268.653L266.212 336.178L256.448 333.614L255.852 334.564L263.534 341.89L255.852 349.216L256.448 350.227L266.212 347.669L268.653 356.78H269.901L272.342 347.669L282.106 350.227L282.703 349.216L275.021 341.89L282.703 334.564L282.106 333.614Z" fill="white"/>
<path d="M318.958 333.614L309.194 336.178L306.753 327H305.505L303.064 336.178L293.3 333.614L292.703 334.564L300.385 341.89L292.703 349.216L293.3 350.227L303.064 347.669L305.505 356.78H306.753L309.194 347.669L318.958 350.227L319.555 349.216L311.872 341.89L319.555 334.564L318.958 333.614Z" fill="white"/>
<path d="M355.81 333.614L346.046 336.178L343.604 327H342.357L339.915 336.178L330.151 333.614L329.555 334.564L337.237 341.89L329.555 349.216L330.151 350.227L339.915 347.669L342.357 356.78H343.604L346.046 347.669L355.81 350.227L356.406 349.216L348.724 341.89L356.406 334.564L355.81 333.614Z" fill="white"/>
<path d="M266 195.5C266.001 194.837 266.325 194.202 266.9 193.733C267.475 193.264 268.255 193.001 269.069 193H289.94C290.752 193.002 291.531 193.266 292.104 193.735C292.678 194.203 293 194.838 293 195.5C293 196.162 292.678 196.797 292.104 197.265C291.531 197.734 290.752 197.998 289.94 198H269.069C268.255 197.999 267.475 197.736 266.9 197.267C266.325 196.798 266.001 196.163 266 195.5Z" fill="#3F3D56"/>
<path d="M355.475 617H218.233C207.585 616.988 197.377 612.721 189.848 605.135C182.318 597.549 178.083 587.263 178.071 576.535V359.117C177.317 358.572 176.703 357.853 176.28 357.021C175.857 356.189 175.637 355.268 175.639 354.333V332.467C175.637 331.532 175.857 330.611 176.28 329.779C176.703 328.947 177.317 328.229 178.071 327.684V321.815C177.317 321.27 176.703 320.552 176.28 319.72C175.857 318.889 175.637 317.967 175.639 317.033V295.165C175.637 294.231 175.857 293.309 176.28 292.478C176.703 291.646 177.317 290.928 178.071 290.383V279.776C177.14 279.272 176.363 278.523 175.822 277.609C175.281 276.695 174.997 275.65 175 274.586V252.72C174.997 251.656 175.281 250.61 175.822 249.696C176.363 248.782 177.14 248.033 178.071 247.529V218.465C178.083 207.737 182.318 197.451 189.848 189.865C197.377 182.279 207.585 178.012 218.233 178H355.475C366.122 178.012 376.331 182.279 383.86 189.865C391.389 197.451 395.624 207.737 395.636 218.465V281.818C396.359 282.274 396.955 282.907 397.369 283.659C397.783 284.411 398 285.256 398 286.116V327.81C398 328.67 397.783 329.516 397.369 330.268C396.955 331.02 396.359 331.653 395.636 332.11V576.535C395.624 587.263 391.389 597.549 383.86 605.135C376.331 612.721 366.122 616.988 355.475 617ZM218.233 183.379C209 183.389 200.149 187.089 193.621 193.667C187.092 200.244 183.42 209.163 183.409 218.465V252.104L180.841 252.204C180.708 252.209 180.581 252.265 180.488 252.361C180.394 252.457 180.341 252.585 180.338 252.72V274.586C180.341 274.72 180.395 274.849 180.488 274.945C180.582 275.041 180.708 275.097 180.841 275.102L183.409 275.201V294.159L181.378 294.663C181.266 294.691 181.166 294.755 181.093 294.846C181.021 294.936 180.98 295.049 180.977 295.165V317.033C180.98 317.149 181.021 317.262 181.093 317.352C181.166 317.443 181.266 317.507 181.378 317.534L183.409 318.039V331.461L181.378 331.965C181.266 331.992 181.166 332.056 181.093 332.147C181.021 332.238 180.98 332.35 180.977 332.467V354.333C180.979 354.45 181.02 354.562 181.093 354.653C181.165 354.744 181.266 354.808 181.378 354.836L183.409 355.34V576.535C183.42 585.837 187.092 594.756 193.621 601.333C200.149 607.911 209 611.611 218.233 611.621H355.475C364.707 611.61 373.558 607.91 380.086 601.333C386.614 594.755 390.287 585.837 390.297 576.535V327.504H392.662V286.423H390.297V218.465C390.287 209.163 386.614 200.245 380.086 193.667C373.558 187.089 364.707 183.389 355.475 183.379H218.233Z" fill="#3F3D56"/>
<path d="M303.5 198C304.881 198 306 196.881 306 195.5C306 194.119 304.881 193 303.5 193C302.119 193 301 194.119 301 195.5C301 196.881 302.119 198 303.5 198Z" fill="#3F3D56"/>
<path d="M288.5 542C300.926 542 311 531.479 311 518.5C311 505.521 300.926 495 288.5 495C276.074 495 266 505.521 266 518.5C266 531.479 276.074 542 288.5 542Z" fill="white"/>
</svg>
