<svg width="1157" height="847" viewBox="0 0 1157 847" fill="none" xmlns="http://www.w3.org/2000/svg">
<path d="M83.0005 165.089C14.0369 257.074 47.3425 409.355 116.872 489.624C153.658 532.091 175.838 525.929 212.031 579.128C251.419 636.46 247.566 676.1 293.625 722.616C301.416 730.342 329.968 758.07 369.482 772.477C477.393 811.741 535.4 702.955 663.941 715C767.761 724.642 778.39 800.31 885.873 797.719C902.77 797.338 985.871 793.501 1048.1 729.186C1121.07 653.777 1111.55 550.566 1108.7 526.685C1098.84 447.72 1059.87 439.212 1006.33 326.326C935.427 176.909 968.413 117.396 917.081 88.1275C834.641 41.2233 751.47 196.121 579.213 187.47C436.481 180.34 400.084 69.1214 252.825 83.1325C230.1 85.6445 136.171 94.4985 83.0005 165.089Z" fill="#E3F0E9"/>
<g clip-path="url(#clip0_4_217)">
<path d="M634.952 192H453.046C424.754 192 401.819 214.967 401.819 243.297V659.542C401.819 687.872 424.754 710.839 453.046 710.839H634.952C663.243 710.839 686.178 687.872 686.178 659.542V243.297C686.178 214.967 663.243 192 634.952 192Z" fill="#3F3D56"/>
<path d="M681.381 243.301V659.542C681.367 671.869 676.471 683.687 667.766 692.403C659.062 701.12 647.26 706.023 634.95 706.037H453.048C440.738 706.023 428.936 701.12 420.232 692.403C411.528 683.687 406.631 671.869 406.617 659.542V243.301C406.631 230.974 411.528 219.156 420.232 210.44C428.936 201.723 440.738 196.82 453.048 196.806H476.835V205.034C476.835 208.759 478.313 212.331 480.943 214.965C483.573 217.599 487.141 219.079 490.861 219.079H597.138C600.858 219.079 604.425 217.599 607.055 214.965C609.686 212.331 611.164 208.759 611.164 205.034V196.806H634.95C647.26 196.82 659.062 201.723 667.766 210.44C676.471 219.156 681.367 230.974 681.381 243.301Z" fill="white"/>
<path d="M400.511 297.253C399.586 297.252 398.699 296.883 398.045 296.228C397.391 295.573 397.023 294.685 397.022 293.759V286.771C397.022 285.844 397.389 284.956 398.044 284.301C398.698 283.645 399.585 283.277 400.511 283.277C401.436 283.277 402.324 283.645 402.978 284.301C403.632 284.956 404 285.844 404 286.771V293.759C403.999 294.685 403.631 295.573 402.977 296.228C402.323 296.883 401.436 297.252 400.511 297.253Z" fill="#3F3D56"/>
<path d="M400.511 333.084C399.586 333.083 398.699 332.714 398.045 332.059C397.391 331.404 397.023 330.516 397.022 329.59V310.355C397.022 309.428 397.389 308.539 398.044 307.884C398.698 307.229 399.585 306.861 400.511 306.861C401.436 306.861 402.324 307.229 402.978 307.884C403.632 308.539 404 309.428 404 310.355V329.59C403.999 330.516 403.631 331.404 402.977 332.059C402.323 332.714 401.436 333.083 400.511 333.084Z" fill="#3F3D56"/>
<path d="M400.511 361.889C399.586 361.888 398.699 361.52 398.045 360.865C397.391 360.21 397.023 359.322 397.022 358.395V339.16C397.022 338.234 397.389 337.345 398.044 336.69C398.698 336.035 399.585 335.666 400.511 335.666C401.436 335.666 402.324 336.035 402.978 336.69C403.632 337.345 404 338.234 404 339.16V358.395C403.999 359.322 403.631 360.21 402.977 360.865C402.323 361.52 401.436 361.888 400.511 361.889Z" fill="#3F3D56"/>
<path d="M686.614 346.167C685.689 346.166 684.803 345.797 684.148 345.142C683.494 344.487 683.126 343.599 683.125 342.673V295.739C683.125 294.812 683.493 293.923 684.147 293.268C684.802 292.613 685.689 292.245 686.614 292.245C687.54 292.245 688.427 292.613 689.082 293.268C689.736 293.923 690.104 294.812 690.104 295.739V342.673C690.102 343.599 689.735 344.487 689.08 345.142C688.426 345.797 687.539 346.166 686.614 346.167Z" fill="#3F3D56"/>
<path d="M551.494 208.024H524.453C523.875 208.024 523.32 207.794 522.912 207.385C522.503 206.975 522.273 206.42 522.273 205.841C522.273 205.262 522.503 204.706 522.912 204.297C523.32 203.887 523.875 203.657 524.453 203.657H551.494C552.072 203.657 552.627 203.887 553.036 204.297C553.445 204.706 553.674 205.262 553.674 205.841C553.674 206.42 553.445 206.975 553.036 207.385C552.627 207.794 552.072 208.024 551.494 208.024Z" fill="white"/>
<path d="M565.45 207.588C566.414 207.588 567.195 206.806 567.195 205.841C567.195 204.876 566.414 204.094 565.45 204.094C564.487 204.094 563.706 204.876 563.706 205.841C563.706 206.806 564.487 207.588 565.45 207.588Z" fill="white"/>
<path d="M466.442 217.394H442.891C441.734 217.394 440.625 216.934 439.807 216.115C438.989 215.296 438.529 214.185 438.529 213.027C438.529 211.869 438.989 210.758 439.807 209.939C440.625 209.12 441.734 208.66 442.891 208.66H466.442C467.599 208.66 468.708 209.12 469.526 209.939C470.344 210.758 470.803 211.869 470.803 213.027C470.803 214.185 470.344 215.296 469.526 216.115C468.708 216.934 467.599 217.394 466.442 217.394Z" fill="#E6E6E6"/>
<path d="M555.775 400.492H532.224C531.067 400.492 529.958 400.032 529.14 399.213C528.322 398.394 527.862 397.283 527.862 396.125C527.862 394.966 528.322 393.856 529.14 393.037C529.958 392.218 531.067 391.757 532.224 391.757H555.775C556.932 391.757 558.041 392.218 558.859 393.037C559.677 393.856 560.136 394.966 560.136 396.125C560.136 397.283 559.677 398.394 558.859 399.213C558.041 400.032 556.932 400.492 555.775 400.492Z" fill="#E6E6E6"/>
<path d="M620.833 216.958C623.001 216.958 624.758 215.198 624.758 213.027C624.758 210.856 623.001 209.096 620.833 209.096C618.665 209.096 616.908 210.856 616.908 213.027C616.908 215.198 618.665 216.958 620.833 216.958Z" fill="#E6E6E6"/>
<path d="M633.045 216.958C635.213 216.958 636.97 215.198 636.97 213.027C636.97 210.856 635.213 209.096 633.045 209.096C630.877 209.096 629.12 210.856 629.12 213.027C629.12 215.198 630.877 216.958 633.045 216.958Z" fill="#E6E6E6"/>
<path d="M645.257 216.958C647.425 216.958 649.182 215.198 649.182 213.027C649.182 210.856 647.425 209.096 645.257 209.096C643.089 209.096 641.332 210.856 641.332 213.027C641.332 215.198 643.089 216.958 645.257 216.958Z" fill="#E6E6E6"/>
<path d="M619.278 461.635H456.397C452.204 461.63 448.183 459.96 445.218 456.99C442.253 454.021 440.585 449.995 440.58 445.796V429.433C440.585 425.234 442.253 421.208 445.218 418.239C448.183 415.269 452.204 413.599 456.397 413.594H619.278C623.472 413.599 627.492 415.269 630.457 418.239C633.423 421.208 635.091 425.234 635.095 429.433V445.796C635.091 449.995 633.423 454.021 630.457 456.99C627.492 459.96 623.472 461.63 619.278 461.635ZM456.397 415.341C452.666 415.345 449.089 416.831 446.451 419.473C443.813 422.115 442.329 425.697 442.324 429.433V445.796C442.329 449.532 443.813 453.114 446.451 455.756C449.089 458.397 452.666 459.884 456.397 459.888H619.278C623.009 459.884 626.586 458.398 629.224 455.756C631.863 453.114 633.347 449.532 633.351 445.796V429.433C633.347 425.697 631.863 422.115 629.224 419.473C626.586 416.831 623.009 415.345 619.278 415.341H456.397Z" fill="#E6E6E6"/>
<path d="M555.775 521.904H532.224C531.067 521.904 529.958 521.444 529.14 520.625C528.322 519.806 527.862 518.695 527.862 517.537C527.862 516.378 528.322 515.267 529.14 514.448C529.958 513.629 531.067 513.169 532.224 513.169H555.775C556.932 513.169 558.041 513.629 558.859 514.448C559.677 515.267 560.136 516.378 560.136 517.537C560.136 518.695 559.677 519.806 558.859 520.625C558.041 521.444 556.932 521.904 555.775 521.904Z" fill="#E6E6E6"/>
<path d="M561.185 648.556H526.813C525.977 648.557 525.148 648.393 524.375 648.073C523.602 647.754 522.899 647.284 522.308 646.692C521.716 646.1 521.246 645.397 520.926 644.623C520.605 643.85 520.441 643.02 520.441 642.183C520.441 641.345 520.605 640.515 520.926 639.742C521.246 638.968 521.716 638.265 522.308 637.673C522.899 637.081 523.602 636.612 524.375 636.292C525.148 635.972 525.977 635.808 526.813 635.809H561.185C562.873 635.809 564.492 636.48 565.686 637.675C566.88 638.871 567.55 640.492 567.55 642.183C567.55 643.873 566.88 645.494 565.686 646.69C564.492 647.885 562.873 648.556 561.185 648.556Z" fill="#08BA90"/>
<path d="M619.278 583.047H456.397C452.204 583.042 448.183 581.371 445.218 578.402C442.253 575.433 440.585 571.407 440.58 567.207V550.845C440.585 546.646 442.253 542.62 445.218 539.65C448.183 536.681 452.204 535.011 456.397 535.006H619.278C623.472 535.011 627.492 536.681 630.457 539.65C633.423 542.62 635.091 546.646 635.095 550.845V567.207C635.091 571.407 633.423 575.433 630.457 578.402C627.492 581.371 623.472 583.042 619.278 583.047ZM456.397 536.753C452.666 536.757 449.089 538.243 446.451 540.885C443.813 543.527 442.329 547.109 442.324 550.845V567.207C442.329 570.943 443.813 574.525 446.451 577.167C449.089 579.809 452.666 581.295 456.397 581.3H619.278C623.009 581.295 626.586 579.809 629.224 577.167C631.863 574.525 633.347 570.943 633.351 567.207V550.845C633.347 547.109 631.863 543.527 629.224 540.885C626.586 538.243 623.009 536.757 619.278 536.753H456.397Z" fill="#E6E6E6"/>
<path d="M649.182 361.016H438.529V362.763H649.182V361.016Z" fill="#E6E6E6"/>
<path d="M643.704 430.338C643.908 431.798 644.674 433.121 645.838 434.024C647.001 434.928 648.471 435.341 649.934 435.176C650.231 435.138 650.524 435.075 650.811 434.988L662.529 450.87L672.669 447.75L654.267 427.733C653.816 426.571 652.994 425.591 651.928 424.946C650.863 424.302 649.614 424.028 648.377 424.169C647.674 424.256 646.995 424.481 646.378 424.83C645.762 425.18 645.22 425.648 644.785 426.207C644.349 426.766 644.027 427.406 643.838 428.089C643.649 428.773 643.597 429.487 643.683 430.191C643.689 430.24 643.696 430.289 643.704 430.338Z" fill="#FFB6B6"/>
<path d="M791.17 541.839C790.123 540.802 789.522 539.397 789.494 537.923C789.466 536.448 790.013 535.021 791.02 533.945C791.228 533.73 791.453 533.532 791.694 533.354L785.979 514.454L794.536 508.177L799.569 534.914C800.23 535.97 800.523 537.216 800.402 538.457C800.282 539.697 799.755 540.863 798.903 541.772C798.413 542.285 797.827 542.696 797.179 542.982C796.531 543.268 795.833 543.424 795.124 543.439C794.416 543.455 793.712 543.331 793.052 543.074C792.391 542.817 791.788 542.433 791.276 541.943C791.24 541.908 791.205 541.874 791.17 541.839Z" fill="#FFB6B6"/>
<path d="M742.674 700.732L734.037 700.731L729.929 667.374L742.675 667.374L742.674 700.732Z" fill="#FFB6B6"/>
<path d="M742.977 709.754L716.419 709.753V709.417C716.42 706.672 717.509 704.039 719.447 702.098C721.386 700.157 724.015 699.066 726.757 699.066L731.608 695.38L740.66 699.066L742.978 699.066L742.977 709.754Z" fill="#2F2E41"/>
<path d="M780.181 700.732L771.545 700.731L767.436 667.374L780.183 667.374L780.181 700.732Z" fill="#FFB6B6"/>
<path d="M780.485 709.754L753.927 709.753V709.417C753.927 706.672 755.016 704.039 756.955 702.098C758.893 700.157 761.523 699.066 764.264 699.066L769.116 695.38L778.167 699.066L780.485 699.066L780.485 709.754Z" fill="#2F2E41"/>
<path d="M717.089 521.43C717.089 521.43 707.258 535.154 714.354 558.863C721.45 582.573 717.466 603.77 719.458 608.02C721.45 612.271 725.46 616.307 722.146 619.53C718.833 622.752 717.089 625.373 719.705 626.246C722.322 627.12 731.045 688.262 731.045 688.262L745.873 689.136C745.873 689.136 751.245 660.733 745.506 637.812C745.506 637.812 746.766 621.173 744.139 616.285C741.512 611.397 742.027 615.806 742.206 609.671C742.305 605.234 742.95 600.827 744.129 596.548C745.001 593.055 745.506 557.841 745.506 557.841L764.784 601.338C765.363 602.948 765.58 604.666 765.42 606.37C765.063 608.777 765.06 612.374 765.498 613.633C765.936 614.891 766.423 615.156 766.179 617.644C765.936 620.132 765.936 686.116 765.936 686.116H782.509L790.359 620.132C788.947 618.565 787.771 616.799 786.87 614.891C785.125 611.397 785.058 611.205 785.964 608.681C786.87 606.157 786.87 601.239 786.87 599.767C786.87 598.295 787.776 531.478 776.42 521.65C765.063 511.822 717.089 521.43 717.089 521.43Z" fill="#2F2E41"/>
<path d="M767.982 416.54L751.426 412.244L743.698 401.57L725.344 403.829L721.437 418.388L708.371 425.983C708.371 425.983 715.593 502.474 713.875 506.674C712.157 510.874 705.998 510.527 711.258 515.941C716.519 521.356 717.215 519.175 715.995 525.069C714.774 530.964 705.876 537.202 715.995 537.14C726.113 537.078 787.172 536.205 785.428 529.217C783.683 522.229 783.711 524.004 781.08 519.622C778.45 515.241 776.679 517.69 777.564 511.225C778.45 504.76 777.577 500.392 777.577 496.899C777.577 493.405 774.655 461.655 774.655 461.655L767.982 416.54Z" fill="#E6E6E6"/>
<path d="M716.326 424.516C716.326 424.516 699.945 422.654 696.456 430.515C692.967 438.376 684.174 454.745 684.174 454.745C684.174 454.745 677.319 447.564 676.655 444.309C676.092 441.545 675.782 446.161 671.178 441.164C669.114 438.925 670.858 438.925 668.242 438.051L663.008 436.304L654.285 444.165C654.285 444.165 654.115 453.664 658.647 453.774C663.179 453.884 656.902 452.027 663.008 458.141C666.161 461.298 663.269 460.775 668.523 463.988C673.777 467.201 673.185 467.187 674.789 468.941C676.394 470.695 685.007 471.971 685.007 471.971L723.579 450.598L716.326 424.516Z" fill="#E6E6E6"/>
<path d="M759.374 419.844C759.374 419.844 766.398 409.539 778.404 422.928C790.41 436.316 799.386 497.438 798.823 499.632C798.26 501.826 795.094 500.568 798.858 504.254C802.621 507.941 805.238 505.32 802.621 507.941C800.005 510.561 794.543 513.027 799.018 513.978C803.494 514.928 786.085 520.161 786.085 520.161C786.085 520.161 783.548 519.233 783.441 513.113C783.381 509.675 785.125 507.928 782.509 507.055C779.892 506.182 783.11 500.349 782.834 499.341C782.559 498.333 765.986 453.786 765.986 453.786L759.374 419.844Z" fill="#E6E6E6"/>
<path d="M731.766 399.743C742.873 399.743 751.877 390.727 751.877 379.605C751.877 368.482 742.873 359.466 731.766 359.466C720.659 359.466 711.655 368.482 711.655 379.605C711.655 390.727 720.659 399.743 731.766 399.743Z" fill="#FFB6B6"/>
<path d="M745.001 395.251C740.247 391.53 746.746 375.162 738.895 378.655C738.895 378.655 729.3 372.541 727.373 376.559C725.14 381.211 717.202 379.101 712.326 377.459C712.709 376.567 712.982 375.631 713.137 374.672C712.237 375.383 711.283 376.022 710.285 376.585C709.615 376.227 709.022 375.74 708.54 375.153C708.065 374.607 707.767 373.929 707.688 373.209C707.608 372.489 707.75 371.763 708.096 371.126C708.907 369.877 710.581 369.493 711.567 368.383C711.681 368.227 711.755 368.046 711.784 367.855C711.812 367.664 711.794 367.469 711.731 367.286C711.613 366.84 711.596 366.373 711.679 365.919C711.762 365.465 711.944 365.035 712.213 364.66C712.481 364.284 712.828 363.973 713.231 363.747C713.633 363.522 714.08 363.388 714.539 363.355C714.724 363.361 714.908 363.321 715.074 363.239C715.901 362.732 716.665 362.128 717.35 361.439C716.204 361.495 715.055 361.463 713.914 361.343C713.678 361.317 713.442 361.291 713.207 361.256C713.643 360.231 714.295 359.312 715.119 358.563C715.942 357.814 716.918 357.252 717.978 356.915C720.217 356.237 722.548 355.91 724.887 355.945C726.239 355.902 727.591 355.858 728.934 355.814C731.783 355.611 734.645 355.711 737.473 356.111C740.494 356.663 743.356 357.876 745.855 359.664C748.353 361.452 750.427 363.77 751.927 366.453C754.884 371.825 758.085 389.137 745.001 395.251Z" fill="#2F2E41"/>
<path d="M693.682 490.078L590.014 526.782C587.451 527.686 584.634 527.535 582.182 526.362C579.729 525.19 577.842 523.091 576.933 520.526L559.124 470.087C558.221 467.52 558.372 464.699 559.543 462.244C560.714 459.788 562.81 457.898 565.371 456.988L669.04 420.284C671.603 419.38 674.42 419.531 676.872 420.704C679.325 421.877 681.212 423.976 682.121 426.54L699.93 476.98C700.833 479.546 700.682 482.367 699.511 484.822C698.34 487.278 696.244 489.168 693.682 490.078Z" fill="#08BA90"/>
<path d="M583.544 468.699C576.673 473.227 567.866 469.819 564.786 464.856L565.277 464.576C571.127 460.925 579.815 462.959 583.544 468.699Z" fill="white"/>
<path d="M669.656 481.545C668.941 481.843 668.172 481.989 667.397 481.975C666.622 481.961 665.859 481.787 665.155 481.464C662.205 479.996 660.82 475.644 659.708 472.146C659.384 471.129 659.078 470.168 658.767 469.382L658.763 469.37C658.221 467.812 658.315 466.103 659.025 464.614C659.735 463.125 661.003 461.976 662.553 461.418L676.497 456.481C677.212 456.184 677.98 456.038 678.754 456.051C679.528 456.065 680.29 456.239 680.994 456.562C683.943 458.028 685.329 462.379 686.442 465.875C686.767 466.894 687.074 467.857 687.386 468.644C687.931 470.203 687.838 471.915 687.128 473.407C686.419 474.899 685.15 476.05 683.597 476.609L669.656 481.545Z" fill="white"/>
<path d="M584.209 495.435C583.961 495.534 583.69 495.563 583.426 495.519C583.162 495.475 582.915 495.36 582.712 495.186C582.474 494.978 582.293 494.711 582.188 494.413C582.082 494.114 582.055 493.793 582.109 493.481C582.16 493.213 582.283 492.963 582.467 492.761C582.65 492.558 582.885 492.41 583.147 492.334L588.454 490.455C588.706 490.35 588.982 490.318 589.251 490.36C589.521 490.402 589.773 490.518 589.981 490.695C590.219 490.904 590.399 491.17 590.505 491.469C590.61 491.768 590.637 492.088 590.582 492.4C590.531 492.668 590.407 492.917 590.224 493.119C590.041 493.321 589.806 493.469 589.544 493.546L584.237 495.425L584.209 495.435Z" fill="white"/>
<path d="M581.391 507.494C580.925 507.58 580.444 507.538 580 507.372C579.556 507.206 579.166 506.922 578.871 506.551C578.527 506.107 578.304 505.582 578.222 505.027C578.139 504.471 578.201 503.904 578.402 503.38C578.58 502.93 578.88 502.538 579.268 502.248C579.655 501.959 580.115 501.782 580.597 501.738L600.364 495.095C600.838 494.999 601.329 495.035 601.783 495.201C602.237 495.367 602.637 495.654 602.938 496.033C603.281 496.477 603.504 497.001 603.586 497.557C603.668 498.112 603.606 498.679 603.405 499.203C603.225 499.652 602.925 500.042 602.538 500.331C602.151 500.621 601.692 500.797 601.211 500.843L581.443 507.486L581.391 507.494Z" fill="white"/>
<path d="M685.999 437.52L563.353 480.942L563.56 481.529L686.206 438.106L685.999 437.52Z" fill="white"/>
<path d="M666.497 471.243C668.424 471.243 669.986 469.679 669.986 467.749C669.986 465.819 668.424 464.255 666.497 464.255C664.57 464.255 663.008 465.819 663.008 467.749C663.008 469.679 664.57 471.243 666.497 471.243Z" fill="#08BA90"/>
<path d="M677.837 472.116C679.282 472.116 680.453 470.943 680.453 469.496C680.453 468.049 679.282 466.875 677.837 466.875C676.391 466.875 675.22 468.049 675.22 469.496C675.22 470.943 676.391 472.116 677.837 472.116Z" fill="#08BA90"/>
<path d="M265 710.961C265 711.097 265.026 711.233 265.078 711.359C265.13 711.485 265.207 711.6 265.303 711.696C265.4 711.793 265.514 711.87 265.64 711.922C265.766 711.974 265.902 712 266.038 712H889.962C890.237 712 890.501 711.89 890.696 711.696C890.891 711.501 891 711.236 891 710.961C891 710.685 890.891 710.42 890.696 710.226C890.501 710.031 890.237 709.921 889.962 709.921H266.038C265.902 709.921 265.766 709.947 265.64 709.999C265.514 710.052 265.4 710.128 265.303 710.225C265.207 710.321 265.13 710.436 265.078 710.562C265.026 710.689 265 710.824 265 710.961Z" fill="#CCCCCC"/>
<path d="M481.893 688.437C481.391 688.46 480.895 688.328 480.471 688.059C480.046 687.791 479.715 687.397 479.521 686.934C479.328 686.47 479.281 685.957 479.388 685.466C479.495 684.975 479.75 684.528 480.118 684.187L480.286 683.519C480.264 683.465 480.242 683.412 480.219 683.359C479.714 682.163 478.867 681.144 477.786 680.43C476.704 679.715 475.435 679.336 474.139 679.341C472.843 679.346 471.577 679.734 470.501 680.457C469.425 681.18 468.585 682.205 468.089 683.404C466.105 688.189 463.579 692.982 462.957 698.041C462.683 700.277 462.799 702.544 463.299 704.741C458.639 694.562 456.219 683.499 456.204 672.302C456.203 669.492 456.358 666.684 456.671 663.892C456.928 661.602 457.286 659.329 457.744 657.073C460.241 644.829 465.604 633.352 473.391 623.587C477.16 621.527 480.207 618.361 482.124 614.514C482.818 613.131 483.309 611.654 483.58 610.131C483.155 610.186 481.977 603.703 482.298 603.305C481.706 602.405 480.645 601.957 479.998 601.078C476.78 596.709 472.346 597.472 470.031 603.41C465.087 605.909 465.039 610.053 468.073 614.039C470.003 616.575 470.268 620.006 471.962 622.721C471.788 622.944 471.607 623.161 471.432 623.384C468.247 627.485 465.471 631.889 463.144 636.533C463.71 631.331 463.034 626.069 461.173 621.179C459.287 616.622 455.751 612.784 452.637 608.844C448.897 604.112 441.227 606.177 440.568 612.176C440.562 612.234 440.556 612.292 440.55 612.35C441.012 612.611 441.465 612.889 441.908 613.182C442.464 613.554 442.896 614.086 443.145 614.708C443.394 615.33 443.45 616.013 443.306 616.667C443.161 617.321 442.822 617.917 442.334 618.375C441.845 618.833 441.23 619.133 440.569 619.235L440.501 619.245C440.666 620.915 440.957 622.569 441.372 624.194C437.378 639.663 446.002 645.297 458.315 645.55C458.587 645.69 458.852 645.829 459.124 645.962C456.786 652.597 455.319 659.509 454.761 666.523C454.445 670.661 454.464 674.818 454.817 678.953L454.796 678.806C453.904 674.208 451.454 670.059 447.861 667.06C442.524 662.67 434.984 661.054 429.227 657.525C428.615 657.132 427.904 656.922 427.177 656.92C426.449 656.918 425.737 657.125 425.123 657.515C424.509 657.905 424.02 658.463 423.712 659.123C423.405 659.783 423.292 660.517 423.388 661.239C423.396 661.29 423.403 661.342 423.411 661.393C424.27 661.743 425.105 662.146 425.914 662.6C426.376 662.862 426.829 663.139 427.272 663.432C427.828 663.805 428.259 664.337 428.509 664.959C428.758 665.58 428.814 666.263 428.669 666.918C428.525 667.572 428.186 668.167 427.697 668.625C427.209 669.084 426.594 669.383 425.932 669.486L425.865 669.496C425.816 669.503 425.774 669.51 425.725 669.517C427.192 673.023 429.25 676.25 431.81 679.057C434.307 692.561 445.035 693.843 456.51 689.91H456.517C457.776 695.389 459.601 700.722 461.961 705.823H481.406C481.476 705.606 481.538 705.383 481.601 705.167C479.801 705.28 477.994 705.172 476.22 704.846C477.663 703.073 479.106 701.286 480.549 699.514C480.581 699.48 480.611 699.445 480.639 699.409C481.371 698.502 482.11 697.601 482.842 696.694L482.842 696.693C482.881 693.912 482.562 691.137 481.893 688.437Z" fill="#F2F2F2"/>
<path d="M460.787 284.324C461.669 284.814 462.485 285.435 463.237 286.186C464.021 286.937 464.707 287.689 465.295 288.44C465.883 289.191 466.324 289.845 466.618 290.4L465.834 301.18L460.591 306.864L449.076 307.109L449.174 319.457L446.43 320.143C445.58 319.718 444.715 319.147 443.833 318.428C442.951 317.677 442.232 316.778 441.677 315.733L443.98 302.895L443.392 285.059L444.813 284.079C445.27 284.144 445.94 284.389 446.822 284.814C447.704 285.239 448.439 285.68 449.027 286.137C450.301 285.484 451.64 284.994 453.045 284.667C454.482 284.34 455.87 284.144 457.21 284.079C458.549 284.014 459.741 284.095 460.787 284.324ZM460.15 289.763C458.647 289.502 456.899 289.502 454.907 289.763C452.947 289.992 451.117 290.482 449.419 291.233L449.076 302.699L460.003 300.249C460.231 298.452 460.362 296.607 460.395 294.712C460.427 292.817 460.346 291.168 460.15 289.763ZM490.572 303.189L495.129 318.477L492.63 320.143C491.716 319.98 490.736 319.62 489.69 319.065C488.645 318.51 487.698 317.807 486.848 316.958L486.113 309.755L474.843 309.706L471.903 319.359H469.012C468.326 318.706 467.706 317.938 467.15 317.056C466.595 316.141 466.154 315.096 465.827 313.92L471.658 302.846L476.166 290.302L471.021 290.645C470.564 289.861 470.303 288.946 470.237 287.901C470.205 286.856 470.303 285.925 470.531 285.108H480.576C481.197 285.435 481.883 285.908 482.634 286.529C483.418 287.117 484.17 287.787 484.888 288.538C485.64 289.257 486.277 290.008 486.799 290.792L490.572 303.189ZM476.46 304.561L485.525 304.463L485.476 303.924L481.213 290.596L476.46 304.561ZM518.689 290.008L507.615 306.129L507.664 319.457L504.822 320.143C503.972 319.718 503.107 319.147 502.225 318.428C501.343 317.677 500.624 316.778 500.069 315.733L501.735 306.815L490.661 286.235L492.18 284.079C493.356 284.177 494.564 284.373 495.806 284.667C497.047 284.961 498.076 285.533 498.893 286.382L500.51 292.654L504.969 302.111L509.82 294.075L510.751 285.01L513.201 284.079C514.246 284.602 515.291 285.435 516.337 286.578C517.415 287.721 518.199 288.865 518.689 290.008ZM554.468 303.532L555.84 319.457L553.096 320.143C552.246 319.718 551.381 319.147 550.499 318.428C549.617 317.677 548.898 316.778 548.343 315.733L549.421 302.895L548.931 291.723L540.356 317.742L538.543 318.33C536.452 317.121 534.835 315.39 533.692 313.136L529.919 292.948L528.596 303.532L528.155 319.457L525.313 320.143C523.614 319.294 522.193 317.824 521.05 315.733L523.843 302.895L525.215 290.4L521.099 290.547C520.641 289.763 520.38 288.865 520.315 287.852C520.282 286.807 520.38 285.876 520.609 285.059H527.714C528.204 285.288 528.792 285.647 529.478 286.137C530.196 286.627 530.915 287.15 531.634 287.705C532.385 288.26 533.022 288.783 533.545 289.273L538.396 309.608L546.873 285.696L548.294 284.716C548.653 284.781 549.176 284.961 549.862 285.255C550.58 285.549 551.283 285.876 551.969 286.235C552.655 286.594 553.145 286.937 553.439 287.264L554.468 303.532ZM583.246 312.205L584.471 314.655C584.013 315.635 583.376 316.615 582.56 317.595C581.743 318.542 580.894 319.392 580.012 320.143L564.479 318.869L562.372 320.143C561 319.653 559.938 318.918 559.187 317.938L561.098 302.895L560.51 285.059L561.931 284.079C562.29 284.144 562.796 284.34 563.45 284.667C564.136 284.961 564.773 285.288 565.361 285.647L579.767 284.079C580.681 284.634 581.482 285.271 582.168 285.99C582.886 286.709 583.556 287.509 584.177 288.391L583.491 291.037L566.537 290.596L566.243 300.053L577.268 298.436C578.313 298.991 579.179 299.563 579.865 300.151C580.583 300.739 581.188 301.458 581.678 302.307L580.943 305.149L566.145 304.659V314.263L583.246 312.205ZM615.502 286.627L615.061 303.532L615.11 319.457L612.268 320.143C611.419 319.718 610.553 319.147 609.671 318.428C608.789 317.677 608.071 316.778 607.515 315.733L608.152 312.205L596.784 293.389L596.49 303.532L596.539 319.457L593.697 320.143C592.848 319.718 591.982 319.147 591.1 318.428C590.218 317.677 589.5 316.778 588.944 315.733L591.345 302.895L590.953 290.4L587.033 290.547C586.576 289.763 586.315 288.865 586.249 287.852C586.217 286.807 586.315 285.876 586.543 285.059H593.648C594.138 285.288 594.726 285.647 595.412 286.137C596.131 286.627 596.85 287.15 597.568 287.705C598.32 288.26 598.957 288.783 599.479 289.273L609.426 305.443L609.916 302.895L609.328 285.059L610.749 284.079C611.109 284.144 611.599 284.324 612.219 284.618C612.873 284.912 613.51 285.239 614.13 285.598C614.751 285.957 615.208 286.3 615.502 286.627ZM647.557 290.89L636.532 289.812L636.091 303.532L636.238 319.457L633.494 320.143C632.644 319.718 631.779 319.147 630.897 318.428C630.015 317.677 629.296 316.778 628.741 315.733L631.044 302.895L630.652 290.057L622.91 291.233C622.093 290.71 621.391 290.171 620.803 289.616C620.215 289.061 619.594 288.358 618.941 287.509L619.872 284.667L633.984 285.059L644.519 284.275C645.564 284.994 646.397 285.663 647.018 286.284C647.638 286.872 648.161 287.476 648.586 288.097L647.557 290.89Z" fill="#08BA90"/>
</g>
<defs>
<clipPath id="clip0_4_217">
<rect width="626" height="520" fill="white" transform="translate(265 192)"/>
</clipPath>
</defs>
</svg>
