<svg width="1157" height="847" viewBox="0 0 1157 847" fill="none" xmlns="http://www.w3.org/2000/svg">
<path d="M83.0005 165.089C14.0369 257.074 47.3425 409.355 116.872 489.624C153.658 532.091 175.838 525.929 212.031 579.128C251.419 636.46 247.566 676.1 293.625 722.616C301.416 730.342 329.968 758.07 369.482 772.477C477.393 811.741 535.4 702.955 663.941 715C767.761 724.642 778.39 800.31 885.873 797.719C902.77 797.338 985.871 793.501 1048.1 729.186C1121.07 653.777 1111.55 550.566 1108.7 526.685C1098.84 447.72 1059.87 439.212 1006.33 326.326C935.427 176.909 968.413 117.396 917.081 88.1275C834.641 41.2233 751.47 196.121 579.213 187.47C436.481 180.34 400.084 69.1214 252.825 83.1325C230.1 85.6445 136.171 94.4985 83.0005 165.089Z" fill="#E3F0E9"/>
<path d="M394.222 152H173V402.052H394.222V152Z" fill="#E6E6E6"/>
<path d="M379.892 157.291H186.945C181.422 157.291 176.945 161.768 176.945 167.291V386.764C176.945 392.286 181.422 396.764 186.945 396.764H379.892C385.415 396.764 389.892 392.286 389.892 386.764V167.291C389.892 161.768 385.415 157.291 379.892 157.291Z" fill="white"/>
<path d="M283.42 171.475C278.4 171.474 273.492 172.961 269.317 175.747C265.143 178.533 261.889 182.493 259.968 187.126C258.046 191.759 257.543 196.858 258.523 201.776C259.502 206.695 261.919 211.213 265.469 214.76C269.019 218.306 273.541 220.721 278.465 221.7C283.389 222.678 288.493 222.176 293.131 220.258C297.77 218.339 301.734 215.089 304.523 210.919C307.313 206.75 308.802 201.847 308.802 196.832V196.831C308.802 193.501 308.146 190.204 306.87 187.127C305.594 184.051 303.725 181.256 301.367 178.901C299.01 176.547 296.212 174.679 293.132 173.405C290.053 172.13 286.752 171.475 283.419 171.475H283.42ZM283.42 179.081C284.926 179.081 286.398 179.527 287.65 180.363C288.902 181.198 289.878 182.386 290.455 183.776C291.031 185.166 291.182 186.695 290.888 188.171C290.594 189.646 289.869 191.002 288.804 192.065C287.739 193.129 286.383 193.854 284.905 194.147C283.428 194.441 281.897 194.29 280.506 193.714C279.115 193.139 277.926 192.164 277.089 190.913C276.252 189.662 275.806 188.191 275.806 186.687C275.806 184.67 276.608 182.735 278.036 181.309C279.464 179.882 281.4 179.081 283.42 179.081ZM283.42 215.701C280.412 215.687 277.452 214.94 274.798 213.525C272.144 212.11 269.876 210.07 268.19 207.581C268.312 202.51 278.343 199.719 283.42 199.719C288.497 199.719 298.528 202.51 298.65 207.581C296.962 210.068 294.693 212.107 292.04 213.522C289.386 214.936 286.428 215.684 283.42 215.701Z" fill="#08BA90"/>
<path d="M487.571 558.884C488.412 559.747 489.184 560.675 489.879 561.659L598.008 559.016L610.622 535.991L647.898 550.465L629.53 593.396C628.046 596.864 625.476 599.757 622.206 601.642C618.936 603.528 615.142 604.302 611.394 603.85L489.226 589.108C486.345 592.752 482.42 595.434 477.976 596.796C473.531 598.158 468.777 598.136 464.345 596.733C459.913 595.33 456.014 592.612 453.166 588.942C450.318 585.271 448.656 580.821 448.402 576.184C448.147 571.547 449.312 566.942 451.741 562.983C454.17 559.023 457.748 555.896 462 554.017C466.252 552.139 470.975 551.598 475.542 552.466C480.11 553.335 484.304 555.572 487.567 558.879L487.571 558.884Z" fill="#FFB6B6"/>
<path d="M633.107 427.404L683.71 410.837L698.572 390.476L770.897 394.752L781.516 418.512L820.081 436.715L814.154 546.667L804.015 649.567C751.877 622.598 654.575 643.159 653.723 643.494L633.107 427.404Z" fill="#E6E6E6"/>
<path d="M643.925 576.229L592.454 555.658L592.673 554.743C592.894 553.818 614.8 462.374 617.709 447.678C620.739 432.369 631.81 428.136 632.28 427.964L632.623 427.837L652.993 434.031L661.939 504.247L643.925 576.229Z" fill="#E6E6E6"/>
<path d="M755.06 645.044C756.267 645.015 757.474 645.082 758.67 645.243L830.247 564.241L821.921 539.351L857.891 521.888L876.918 564.53C878.455 567.975 878.833 571.825 877.993 575.502C877.153 579.179 875.142 582.485 872.262 584.923L778.378 664.384C779.094 668.973 778.394 673.67 776.371 677.852C774.349 682.033 771.1 685.501 767.056 687.793C763.013 690.085 758.367 691.093 753.736 690.683C749.106 690.273 744.71 688.464 741.133 685.498C737.556 682.531 734.968 678.547 733.713 674.076C732.458 669.604 732.596 664.857 734.108 660.465C735.62 656.074 738.434 652.246 742.177 649.491C745.92 646.737 750.413 645.185 755.06 645.044Z" fill="#FFB6B6"/>
<path d="M824.534 572.126L794.675 501.967L806.321 453.098L818.869 437.262C819.788 436.87 820.778 436.672 821.778 436.681C822.777 436.691 823.764 436.907 824.676 437.316C829.306 439.177 833.242 444.879 836.388 454.264L864.371 533.884L824.534 572.126Z" fill="#E6E6E6"/>
<path d="M669.621 364.479V311.586C669.591 302.279 671.395 293.056 674.932 284.445C678.47 275.834 683.67 268.004 690.237 261.4C696.803 254.797 704.608 249.55 713.204 245.96C721.801 242.37 731.021 240.506 740.339 240.475C749.657 240.444 758.889 242.247 767.509 245.78C776.129 249.314 783.968 254.509 790.579 261.068C797.189 267.628 802.441 275.424 806.036 284.011C809.63 292.599 811.496 301.809 811.527 311.117C811.527 311.273 811.527 311.43 811.527 311.586V364.479C811.524 367.003 810.519 369.423 808.732 371.208C806.945 372.993 804.522 373.997 801.995 374H679.153C676.626 373.997 674.203 372.993 672.416 371.208C670.629 369.423 669.624 367.003 669.621 364.479Z" fill="#2F2E41"/>
<path d="M725.994 372.768C754.723 372.768 778.013 349.503 778.013 320.804C778.013 292.105 754.723 268.84 725.994 268.84C697.264 268.84 673.974 292.105 673.974 320.804C673.974 349.503 697.264 372.768 725.994 372.768Z" fill="#FFB6B6"/>
<path d="M652.836 315.818C652.853 300.953 658.771 286.702 669.294 276.191C679.816 265.68 694.082 259.768 708.963 259.751H719.553C734.434 259.768 748.7 265.68 759.222 276.191C769.744 286.702 775.663 300.953 775.68 315.818V316.876H753.299L745.666 295.521L744.139 316.876H732.574L728.723 306.103L727.951 316.876H652.836V315.818Z" fill="#2F2E41"/>
<path d="M720.875 379.948C719.824 378.527 719.197 376.838 719.065 375.076C718.933 373.315 719.301 371.551 720.128 369.99C731.35 348.667 747.062 309.268 726.207 284.97L724.712 283.226H785.26V374.033L730.257 383.727C729.7 383.826 729.136 383.876 728.571 383.876C727.069 383.876 725.589 383.52 724.252 382.838C722.915 382.156 721.759 381.166 720.879 379.951L720.875 379.948Z" fill="#2F2E41"/>
<path d="M281.595 242.059H213.035V249.065H281.595V242.059Z" fill="#E6E6E6"/>
<path d="M316.51 263.053H213.035V270.059H316.51V263.053Z" fill="#08BA90"/>
<path d="M306.353 284.18H213.035V291.186H306.353V284.18Z" fill="#E6E6E6"/>
<path d="M357.138 304.748H213.035V311.754H357.138V304.748Z" fill="#08BA90"/>
<path d="M331.974 324.336H214.533V331.342H331.974V324.336Z" fill="#E6E6E6"/>
<path d="M283.714 380.895C294.171 361.752 319.222 349.63 339.714 360.557C348.938 365.474 356.27 374.173 358.598 384.455C361.299 396.399 355.607 407.788 349.732 417.822C346.543 423.269 343.049 428.604 340.409 434.349C337.677 440.298 335.723 447.174 337.781 453.646C339.633 459.477 344.277 463.717 349.363 466.834C354.976 470.144 360.947 472.808 367.16 474.775C379.951 479.024 393.442 480.768 406.894 479.91C413.579 479.456 420.209 478.386 426.697 476.712C433.599 474.954 440.371 472.726 447.285 471.007C458.827 468.143 471.988 466.719 482.933 472.472C493.566 478.063 498.324 489.755 499.796 501.13C502.514 522.135 494.177 543.932 479.124 558.641C471.902 565.698 462.814 571.528 452.915 573.914C444.279 575.995 433.189 575.862 426.316 569.412C418.646 562.214 420.45 550.672 426.542 543.077C434.317 533.388 447.489 531.06 459.244 530.824C472.615 530.556 485.974 532.545 499.338 531.309C505.86 530.802 512.261 529.259 518.298 526.74C523.605 524.408 528.446 521.136 532.587 517.081C540.837 509.074 546.401 498.408 549.168 487.318C552.499 473.981 551.773 459.964 549.187 446.567C547.809 439.66 546.034 432.837 543.871 426.133C542.978 423.303 538.506 424.514 539.406 427.362C547.37 452.59 551.811 481.761 536.423 505.184C530.055 515.117 520.135 522.25 508.684 525.13C495.366 528.436 481.391 526.802 467.852 526.31C454.978 525.842 440.841 526.347 429.805 533.837C420.751 539.981 414.419 551.666 417.156 562.698C419.794 573.337 430.029 578.733 440.266 579.564C451.006 580.439 461.575 576.838 470.595 571.207C489.359 559.494 501.835 538.895 504.446 517.056C505.806 505.676 504.422 493.419 499.256 483.09C496.534 477.499 492.297 472.782 487.026 469.475C481.77 466.256 475.7 464.672 469.603 464.111C455.752 462.837 442.444 467.587 429.304 471.222C422.592 473.167 415.711 474.479 408.754 475.14C402.001 475.699 395.209 475.588 388.478 474.81C381.799 474.023 375.217 472.564 368.832 470.454C362.575 468.522 356.584 465.817 350.998 462.401C346.071 459.253 341.809 454.745 341.567 448.601C341.304 441.94 344.666 435.708 347.864 430.092C354.183 418.998 361.987 408.146 363.635 395.159C365.078 383.798 360.502 372.6 352.599 364.497C348.638 360.384 343.87 357.132 338.593 354.945C333.316 352.759 327.644 351.684 321.932 351.788C310.207 352.124 298.98 357.217 290.356 365.04C286.079 368.922 282.479 373.489 279.706 378.554C278.277 381.168 282.274 383.505 283.704 380.888L283.714 380.895Z" fill="#3F3D56"/>
<path d="M283.612 388.248C290.205 388.248 295.549 382.91 295.549 376.324C295.549 369.739 290.205 364.4 283.612 364.4C277.02 364.4 271.676 369.739 271.676 376.324C271.676 382.91 277.02 388.248 283.612 388.248Z" fill="#E6E6E6"/>
<path d="M816.701 679.621C801.852 685.049 786.525 689.068 770.921 691.624C727.995 698.657 683.983 694.664 643.027 680.022L654.789 632.88L655.499 630.051L679.5 630.143L800.078 630.575L801.621 635.131L816.701 679.621Z" fill="#2F2E41"/>
</svg>
