<svg width="1157" height="847" viewBox="0 0 1157 847" fill="none" xmlns="http://www.w3.org/2000/svg">
<path d="M83.0005 165.089C14.0369 257.073 47.3425 409.355 116.872 489.624C153.658 532.091 175.838 525.929 212.031 579.128C251.419 636.46 247.566 676.1 293.625 722.616C301.416 730.342 329.968 758.07 369.482 772.477C477.393 811.741 535.4 702.955 663.941 715C767.761 724.642 778.39 800.309 885.873 797.719C902.77 797.338 985.871 793.501 1048.1 729.186C1121.07 653.777 1111.55 550.566 1108.7 526.685C1098.84 447.72 1059.87 439.211 1006.33 326.326C935.427 176.909 968.413 117.396 917.081 88.1275C834.641 41.2232 751.47 196.121 579.213 187.47C436.481 180.34 400.084 69.1213 252.825 83.1324C230.1 85.6444 136.171 94.4984 83.0005 165.089Z" fill="#E3F0E9"/>
<g clip-path="url(#clip0_2_59)">
<path d="M824.032 342.304H332.519C328.139 342.299 323.941 340.552 320.844 337.447C317.747 334.342 316.005 330.132 316 325.741V132.563C316.005 128.172 317.747 123.962 320.844 120.857C323.941 117.752 328.139 116.005 332.519 116H824.032C828.411 116.005 832.61 117.752 835.706 120.857C838.803 123.962 840.545 128.172 840.55 132.563V325.741C840.545 330.132 838.803 334.342 835.706 337.447C832.61 340.552 828.411 342.299 824.032 342.304Z" fill="#E3F0E9"/>
<path d="M709.4 331.74H410.539C388.268 331.715 366.917 322.833 351.169 307.043C335.421 291.253 326.563 269.844 326.538 247.513V210.8C326.563 188.469 335.421 167.06 351.169 151.27C366.917 135.48 388.268 126.598 410.539 126.572H746.014C768.285 126.598 789.636 135.48 805.384 151.27C821.132 167.06 829.99 188.469 830.015 210.8C829.979 242.864 817.26 273.605 794.648 296.278C772.036 318.951 741.378 331.704 709.4 331.74Z" fill="white"/>
<path d="M632.306 181.873H434.755C433.625 181.873 432.542 181.423 431.743 180.622C430.944 179.82 430.495 178.734 430.495 177.601C430.495 176.468 430.944 175.382 431.743 174.581C432.542 173.779 433.625 173.329 434.755 173.329H632.306C633.436 173.329 634.519 173.779 635.318 174.581C636.117 175.382 636.566 176.468 636.566 177.601C636.566 178.734 636.117 179.82 635.318 180.622C634.519 181.423 633.436 181.873 632.306 181.873Z" fill="#E6E6E6"/>
<path d="M732.309 227.449H434.755C433.625 227.449 432.542 226.998 431.743 226.197C430.944 225.396 430.495 224.31 430.495 223.177C430.495 222.044 430.944 220.957 431.743 220.156C432.542 219.355 433.625 218.905 434.755 218.905H732.309C733.439 218.905 734.523 219.355 735.322 220.156C736.121 220.957 736.57 222.044 736.57 223.177C736.57 224.31 736.121 225.396 735.322 226.197C734.523 226.998 733.439 227.449 732.309 227.449Z" fill="#E6E6E6"/>
<path d="M732.309 273.024H434.755C433.625 273.024 432.542 272.574 431.743 271.773C430.944 270.972 430.495 269.886 430.495 268.753C430.495 267.62 430.944 266.533 431.743 265.732C432.542 264.931 433.625 264.481 434.755 264.481H732.309C733.439 264.481 734.523 264.931 735.322 265.732C736.121 266.533 736.57 267.62 736.57 268.753C736.57 269.886 736.121 270.972 735.322 271.773C734.523 272.574 733.439 273.024 732.309 273.024Z" fill="#E6E6E6"/>
<path d="M732.309 273.024H434.755C433.625 273.024 432.542 272.574 431.743 271.773C430.944 270.972 430.495 269.886 430.495 268.753C430.495 267.62 430.944 266.533 431.743 265.732C432.542 264.931 433.625 264.481 434.755 264.481H732.309C733.439 264.481 734.523 264.931 735.322 265.732C736.121 266.533 736.57 267.62 736.57 268.753C736.57 269.886 736.121 270.972 735.322 271.773C734.523 272.574 733.439 273.024 732.309 273.024Z" fill="#E6E6E6"/>
<path d="M611.459 232.679C611.506 233.966 611.835 235.227 612.42 236.373C613.006 237.518 613.835 238.521 614.85 239.311C615.864 240.101 617.039 240.658 618.291 240.943C619.543 241.228 620.842 241.235 622.097 240.962L638.344 267.687L645.259 252.974L628.77 229.852C628.174 227.768 626.835 225.976 625.009 224.816C623.183 223.656 620.996 223.207 618.862 223.556C616.728 223.904 614.796 225.026 613.432 226.707C612.067 228.389 611.365 230.514 611.459 232.679Z" fill="#FCBAC3"/>
<path d="M733.38 309.271L677.391 278.819L659.731 262.206C659.731 262.206 652.053 260.144 654.879 257.641C657.705 255.138 649.652 252.724 649.652 252.724L640.172 243.806L626.7 253.363L630.599 259.423C630.599 259.423 630.331 269.455 635.812 267.525C641.292 265.595 639.923 273.915 639.923 273.915L672.637 324.764L733.38 309.271Z" fill="#E6E6E6"/>
<path d="M568.106 280.581C598.309 280.581 622.794 256.03 622.794 225.745C622.794 195.46 598.309 170.91 568.106 170.91C537.903 170.91 513.418 195.46 513.418 225.745C513.418 256.03 537.903 280.581 568.106 280.581Z" fill="#08BA90"/>
<path d="M733.553 708.68H722.182L716.771 664.702H733.553V708.68Z" fill="#FCBAC3"/>
<path d="M739.555 728.435H731.401L729.945 720.716L726.217 728.435H704.589C703.552 728.435 702.543 728.103 701.708 727.487C700.873 726.871 700.256 726.004 699.947 725.011C699.639 724.019 699.655 722.953 699.993 721.971C700.331 720.988 700.973 720.139 701.826 719.549L719.098 707.588V699.784L737.265 700.871L739.555 728.435Z" fill="#2F2E41"/>
<path d="M642.608 708.68H631.236L625.825 664.702H642.608V708.68Z" fill="#FCBAC3"/>
<path d="M648.609 728.435H640.455L638.999 720.716L635.271 728.435H613.643C612.606 728.435 611.597 728.103 610.762 727.487C609.927 726.871 609.31 726.004 609.001 725.011C608.693 724.019 608.709 722.953 609.047 721.971C609.385 720.988 610.027 720.139 610.88 719.549L628.152 707.588V699.784L646.319 700.871L648.609 728.435Z" fill="#2F2E41"/>
<path d="M721.488 376.078H664.095V441.594H721.488V376.078Z" fill="#FCBAC3"/>
<path d="M665.419 408.394L655.707 419.903L638.93 455.317L596.658 556.167L587.718 577.495L594.938 615.199C594.938 615.199 596.106 641.762 596.106 646.11C596.106 654.964 603.491 659.869 603.491 659.869L608.909 688.164L661.446 685.951C661.446 685.951 659.613 654.762 648.609 646.895C637.606 639.027 632.548 598.026 632.548 598.026L626.569 579.834L684.845 510.568L685.221 534.78L685.403 546.499C685.403 546.499 676.869 622.722 686.817 637.515C696.765 652.307 687.02 650.567 687.02 650.567L687.494 681.081L749.743 681.524L736.01 593.673C736.01 593.673 729.037 588.152 732.767 582.602C736.498 577.053 729.151 570.256 729.151 570.256L732.447 501.673C732.447 501.673 728.798 489.827 733.09 488.287C737.381 486.747 733.653 476.56 733.653 476.56L734.291 463.285L721.488 422.117L665.419 408.394Z" fill="#2F2E41"/>
<path d="M722.371 376.078L728.552 357.486L732.967 351.289L734.732 333.582C734.732 285.773 724.097 293.734 724.097 293.734L717.956 276.919L689.701 276.034L671.6 293.298L656.59 298.61L650.712 329.235L661.446 361.913L664.095 379.62C659.042 388.973 659.469 384.549 663.653 391.572L713.541 405.295C731.201 411.492 731.201 395.556 727.659 391.572C724.118 387.588 722.371 376.078 722.371 376.078Z" fill="#E6E6E6"/>
<path d="M700.178 270.091C714.645 270.091 726.372 258.332 726.372 243.827C726.372 229.322 714.645 217.563 700.178 217.563C685.712 217.563 673.985 229.322 673.985 243.827C673.985 258.332 685.712 270.091 700.178 270.091Z" fill="#FCBAC3"/>
<path d="M735.147 278.885C735.394 279.302 735.544 279.77 735.585 280.254C735.627 280.737 735.559 281.224 735.386 281.678C735.214 282.131 734.942 282.54 734.59 282.873C734.238 283.207 733.816 283.457 733.355 283.604C729.841 284.772 727.678 288.181 725.152 290.908C722.636 293.626 718.583 295.883 715.369 294.033C712.164 292.192 711.943 287.49 709.259 284.941C706.645 282.462 702.301 282.763 699.228 284.648L699.136 284.705C698.606 285.052 697.986 285.235 697.353 285.232C696.719 285.229 696.101 285.04 695.574 284.689C695.047 284.337 694.634 283.838 694.386 283.254C694.139 282.67 694.067 282.025 694.181 281.401C695.258 275.66 696.334 269.919 697.409 264.179C694.583 271.005 690.48 277.226 685.321 282.506C683.9 284.15 682.1 285.421 680.077 286.207C678.24 286.791 676.456 284.887 674.673 285.233C679.105 281.346 694.01 256.432 691.343 239.779C688.209 240.133 685.074 240.487 681.94 240.841C681.6 239.354 680.875 237.983 679.838 236.866C679.965 238.314 679.781 239.772 679.3 241.142C677.993 241.293 676.677 241.434 675.37 241.585C673.551 241.789 671.573 241.966 670.011 241.01C667.406 239.416 667.326 235.644 668.068 232.669C670.24 224.02 676.827 216.786 684.889 212.997C692.95 209.217 695.334 217.636 703.828 214.945C720.605 209.633 733.461 218.716 737.991 235.573C741.796 249.712 739.033 264.719 735.147 278.885Z" fill="#2F2E41"/>
<path d="M807.663 729.007H775.59L775.452 728.756C775.042 728.01 774.646 727.22 774.276 726.408C770.972 719.316 769.576 711.205 768.343 704.048L767.416 698.654C767.303 698.001 767.388 697.329 767.659 696.724C767.93 696.119 768.374 695.609 768.936 695.259C769.497 694.91 770.15 694.736 770.811 694.76C771.472 694.784 772.11 695.006 772.644 695.396C777.519 698.952 782.395 702.505 787.273 706.055C789.12 707.402 791.229 708.962 793.25 710.647C793.445 709.698 793.648 708.746 793.852 707.807C793.993 707.159 794.323 706.568 794.801 706.109C795.279 705.65 795.882 705.345 796.534 705.232C797.186 705.119 797.856 705.203 798.46 705.475C799.064 705.746 799.573 706.192 799.922 706.755L803.675 712.8C806.412 717.215 808.828 721.565 808.335 726.257C808.338 726.315 808.334 726.372 808.323 726.428C808.224 727.199 808.042 727.956 807.778 728.687L807.663 729.007Z" fill="#F0F0F0"/>
<path d="M839.855 729.702L535.075 730C534.771 729.998 534.479 729.876 534.265 729.66C534.05 729.444 533.93 729.151 533.93 728.846C533.93 728.541 534.05 728.248 534.265 728.032C534.479 727.816 534.771 727.694 535.075 727.692L839.855 727.394C840.159 727.396 840.451 727.518 840.665 727.734C840.88 727.951 841 728.243 841 728.548C841 728.853 840.88 729.146 840.665 729.362C840.451 729.578 840.159 729.701 839.855 729.702Z" fill="#CACACA"/>
<path d="M563.135 299.55L529.61 271.162C528.464 270.19 527.75 268.801 527.624 267.301C527.498 265.801 527.97 264.312 528.937 263.161L535.108 255.835C536.077 254.686 537.462 253.969 538.958 253.843C540.454 253.717 541.939 254.19 543.087 255.16L576.612 283.548C577.758 284.52 578.472 285.909 578.598 287.409C578.724 288.909 578.252 290.398 577.285 291.549L571.114 298.875C570.144 300.024 568.76 300.74 567.264 300.867C565.768 300.993 564.283 300.52 563.135 299.55Z" fill="#3F3D56"/>
<path d="M531.369 263.752C530.848 264.372 530.593 265.174 530.661 265.983C530.729 266.791 531.114 267.539 531.732 268.063L565.256 296.451C565.875 296.974 566.675 297.229 567.481 297.161C568.287 297.093 569.034 296.707 569.556 296.087L575.727 288.761C576.248 288.141 576.502 287.339 576.435 286.53C576.367 285.722 575.982 284.974 575.364 284.45L541.84 256.062C541.221 255.539 540.421 255.284 539.615 255.352C538.808 255.42 538.062 255.806 537.539 256.426L531.369 263.752Z" fill="white"/>
<path d="M551.05 274.787C550.934 274.95 550.781 275.084 550.604 275.178C550.428 275.272 550.231 275.323 550.031 275.328L544.764 275.449C544.595 275.453 544.426 275.423 544.268 275.362C544.111 275.3 543.966 275.209 543.844 275.091C543.722 274.974 543.623 274.834 543.555 274.679C543.487 274.523 543.45 274.356 543.446 274.186C543.442 274.017 543.471 273.848 543.532 273.69C543.594 273.531 543.685 273.387 543.802 273.264C543.919 273.141 544.059 273.043 544.214 272.974C544.369 272.906 544.535 272.869 544.705 272.865L548.151 272.785L544.757 263.806C544.637 263.486 544.648 263.131 544.789 262.819C544.929 262.507 545.187 262.264 545.507 262.143C545.826 262.022 546.18 262.032 546.491 262.172C546.803 262.312 547.046 262.571 547.168 262.89L551.207 273.577C551.28 273.771 551.306 273.979 551.282 274.184C551.258 274.39 551.186 274.586 551.071 274.758L551.05 274.787Z" fill="#08BA90"/>
<path d="M551.726 277.044C552.996 277.231 554.211 277.695 555.283 278.403C556.355 279.112 557.259 280.047 557.932 281.144C558.604 282.241 559.029 283.472 559.176 284.752C559.322 286.031 559.188 287.327 558.781 288.548L583.509 307.648L568.171 312.94L547.04 293.991C545.039 293.17 543.409 291.641 542.457 289.695C541.505 287.748 541.298 285.52 541.876 283.431C542.453 281.342 543.775 279.538 545.591 278.36C547.406 277.183 549.589 276.715 551.726 277.044Z" fill="#FCBAC3"/>
<path d="M680.467 286.487L617.154 325.519C617.154 325.519 591.628 316.049 596.616 311.665C601.605 307.28 585.724 304.316 585.724 304.316L568.179 292.481L557.999 304.345C557.999 304.345 559.854 323.615 563.01 320.278C566.166 316.942 570.884 326.056 570.884 326.056C570.884 326.056 572.278 336.234 581.263 333.673C590.248 331.112 614.357 357.958 614.357 357.958L692.275 328.819L680.467 286.487Z" fill="#E6E6E6"/>
<path d="M566.183 247.742C565.449 247.742 564.725 247.571 564.068 247.241C563.412 246.912 562.841 246.434 562.401 245.845L550.805 230.343C550.433 229.845 550.162 229.278 550.008 228.675C549.854 228.072 549.82 227.444 549.907 226.828C549.995 226.212 550.203 225.619 550.52 225.083C550.836 224.547 551.254 224.079 551.751 223.706C552.754 222.952 554.015 222.628 555.256 222.806C555.871 222.894 556.462 223.102 556.997 223.419C557.531 223.737 557.997 224.156 558.37 224.654L565.956 234.796L585.44 205.491C586.136 204.445 587.217 203.719 588.447 203.472C589.677 203.226 590.953 203.479 591.997 204.176C593.04 204.874 593.764 205.958 594.01 207.191C594.256 208.424 594.004 209.704 593.308 210.751L570.117 245.631C569.698 246.262 569.133 246.782 568.472 247.149C567.81 247.517 567.07 247.719 566.314 247.74C566.27 247.741 566.227 247.742 566.183 247.742Z" fill="white"/>
</g>
<defs>
<clipPath id="clip0_2_59">
<rect width="525" height="614" fill="white" transform="translate(316 116)"/>
</clipPath>
</defs>
</svg>
