<svg width="686" height="783" viewBox="0 0 686 783" fill="none" xmlns="http://www.w3.org/2000/svg">
<path d="M471.331 19.7833C400.827 -23.0969 294.349 11.2715 241.833 66.5179C214.049 95.7471 219.992 111.165 184.499 140.715C146.276 172.835 117.689 172.835 87.6571 208.97C82.6785 215.073 64.8519 237.396 57.3037 266.626C36.7469 346.444 118.492 380.33 118.813 472.997C119.135 547.836 65.8155 560.684 75.1303 637.29C76.5757 649.335 85.0875 708.436 135.355 748.426C194.295 795.321 267.368 781.349 284.231 777.655C339.96 765.128 343.332 736.702 420.26 690.61C522.08 629.582 566.887 649.014 584.232 610.31C612.016 548.157 495.581 499.496 489.799 375.834C484.982 273.371 561.909 239.645 541.673 135.415C538.301 119.355 525.453 52.8669 471.331 19.7833Z" fill="#E3F0E9"/>
<path d="M226.577 570.962C227.861 567.75 229.146 564.538 230.592 561.165C247.294 521.176 236.694 504.955 244.082 485.041C251.47 465.126 283.429 425.297 304.468 406.507C325.506 387.717 343.493 373.905 335.464 350.137C327.434 326.368 311.213 302.117 311.213 302.117C303.022 345.158 227.861 418.873 212.604 464.484C205.217 486.165 200.238 526.475 196.705 564.377C207.305 572.568 217.101 573.692 226.577 570.962Z" fill="#2F2E41"/>
<path d="M218.225 660.097C214.049 652.227 207.465 655.439 206.019 645.803C204.574 636.97 212.283 606.938 226.416 570.964C217.101 573.694 207.144 572.409 196.383 564.379C192.529 605.974 190.762 644.839 190.12 653.351C188.353 679.69 172.775 689.326 175.827 694.626C180.163 702.013 223.204 669.251 218.225 660.097Z" fill="#FED8C7"/>
<path d="M218.224 660.095C215.654 655.437 212.282 654.634 209.712 652.707C209.391 657.846 201.2 667.803 194.616 667.643C192.207 667.803 189.958 666.679 188.513 664.591C184.016 682.579 173.416 690.127 175.986 694.463C180.162 702.011 223.202 669.249 218.224 660.095Z" fill="#2F2E41"/>
<path d="M222.078 193.874C218.866 193.874 215.815 192.91 213.245 190.983L191.725 175.083C191.404 174.923 191.404 174.441 191.564 174.12C191.725 173.799 192.207 173.799 192.528 173.959L214.048 189.859C219.348 194.195 227.218 193.231 231.393 187.931C235.569 182.792 234.926 175.244 229.948 170.908L210.515 152.439C210.194 152.118 210.194 151.796 210.515 151.475C210.836 151.154 211.158 151.154 211.479 151.475L230.911 169.944C236.372 174.923 237.014 183.274 232.357 189.216C229.948 192.268 226.093 194.034 222.078 193.874Z" fill="#FFCC4B"/>
<path d="M234.125 132.042L176.47 200.619L175.827 192.267L167.637 193.231L225.292 124.494L225.774 132.845L234.125 132.042Z" fill="#FF9500"/>
<path d="M148.203 54.4727L85.248 129.312L167.636 193.231L225.291 124.494L148.203 54.4727Z" fill="#FFCC4B"/>
<path d="M85.248 129.312L98.7384 140.554L176.469 200.619L175.826 192.268L167.636 193.231L85.248 129.312Z" fill="#FFAD12"/>
<path d="M161.533 65.7147L148.203 54.4727L225.291 124.494L225.773 132.845L234.124 132.042L161.533 65.7147Z" fill="#FFAD12"/>
<path d="M220.955 194.676C217.743 194.676 214.691 193.713 212.122 191.786L175.023 164.965C174.702 164.644 174.541 164.323 174.863 164.002C175.184 163.681 175.505 163.52 175.826 163.841L212.925 190.661C219.028 195.158 227.539 193.713 232.036 187.61C236.051 182.15 235.409 174.601 230.43 169.783L197.668 137.824C197.347 137.503 197.347 137.021 197.668 136.7C197.989 136.379 198.471 136.379 198.792 136.7L231.554 168.659C237.497 174.441 237.657 184.077 231.876 190.019C228.985 192.91 225.13 194.676 220.955 194.676Z" fill="#FFAD12"/>
<path d="M460.41 154.367C463.14 160.63 457.198 164.645 459.446 174.12C462.177 185.523 472.295 186.326 472.937 193.874C473.901 205.759 449.329 208.971 445.314 225.352C441.459 240.609 460.731 247.193 459.928 264.699C458.804 289.11 420.581 293.607 418.654 317.857C417.048 337.772 442.102 347.247 437.605 368.125C435.035 380.331 424.436 386.915 422.508 388.2C401.952 400.566 375.292 384.185 370.956 381.616C349.436 368.446 330.485 340.181 335.624 314.806C341.084 287.183 370.153 285.898 375.292 254.581C378.504 234.988 368.386 228.082 375.613 213.789C384.286 197.086 401.149 201.101 411.909 182.793C421.384 166.733 413.354 155.009 423.151 147.621C433.911 139.11 456.074 144.409 460.41 154.367Z" fill="#2F2E41"/>
<path d="M243.117 200.62C242.153 199.335 241.029 198.05 240.065 196.605C241.029 192.268 245.044 183.917 243.277 181.829C241.511 179.742 234.926 177.172 234.926 177.172C234.926 177.172 232.196 170.909 229.145 170.748C226.093 170.587 226.414 175.405 225.13 177.172C223.845 178.939 223.202 182.151 221.918 183.435C220.633 184.72 221.918 187.772 220.312 188.896C218.706 190.02 220.954 194.356 222.881 195.962C224.808 197.568 232.838 202.065 232.838 202.065C233.963 203.671 235.087 205.438 236.211 207.044C236.372 203.189 239.102 200.138 243.117 200.62Z" fill="#FED8C7"/>
<path d="M360.999 192.428C331.448 217.16 301.095 242.856 287.283 250.244C274.114 233.702 259.821 221.657 243.118 200.618C239.264 200.137 236.373 203.188 236.373 207.042C247.294 223.745 253.878 240.768 260.463 253.295C268.172 268.07 275.399 277.064 278.771 278.991C285.517 282.524 318.44 259.559 339.639 245.586L360.999 192.428Z" fill="#FED8C7"/>
<path d="M313.3 280.758C312.015 289.431 311.212 297.3 310.57 301.476C309.767 305.169 308.643 308.703 307.197 312.075C314.424 319.463 336.426 329.26 353.45 332.15C354.253 322.193 356.662 312.396 360.516 303.082C338.193 284.773 322.615 277.065 313.3 280.758Z" fill="#FED8C7"/>
<path d="M360.035 219.89C378.504 228.241 400.507 216.839 409.34 208.648C407.091 205.597 406.128 202.546 408.055 200.137C413.515 193.07 418.333 190.019 427.648 188.252C430.699 177.331 428.933 163.359 413.515 160.629C402.916 172.353 388.622 185.04 381.235 189.055C376.898 191.304 373.526 190.822 369.832 190.661C358.911 197.888 343.494 212.342 360.035 219.89Z" fill="#FED8C7"/>
<path d="M424.274 226.476C422.186 221.176 413.514 214.431 409.338 208.649C400.505 216.679 378.503 228.243 360.034 219.891C343.492 212.343 358.91 197.889 369.509 190.823C366.618 190.662 363.567 191.144 360.837 192.429C352.967 196.123 351.201 201.744 346.062 204.956C340.922 208.168 330.805 212.504 326.468 218.607C322.132 224.709 319.241 232.579 323.899 242.857C318.599 249.442 315.226 266.305 313.139 280.919C322.293 277.226 337.871 284.934 360.194 303.243C365.815 290.395 374.97 279.795 390.066 266.144C414.798 243.821 427.486 234.667 424.274 226.476Z" fill="#E3F0E9"/>
<path d="M407.572 205.438C379.306 222.461 344.456 284.774 335.623 304.367C350.398 314.485 370.634 323.318 377.058 323.157C385.409 296.498 394.724 279.314 403.878 266.787C413.032 254.26 427.004 239.967 424.435 226.476C423.15 220.534 411.587 211.862 407.572 205.438Z" fill="#70D5BC"/>
<path d="M369.67 190.823C340.441 209.613 314.424 283.81 314.585 288.628C299.649 279.153 292.422 286.219 292.422 286.219C299.809 267.911 309.124 250.405 320.527 234.185C319.081 226.636 321.169 221.015 324.542 217.161C327.914 213.307 340.923 208.328 345.42 203.992C351.523 198.21 356.822 194.195 361.159 192.429C368.707 189.377 369.67 190.823 369.67 190.823Z" fill="#70D5BC"/>
<path d="M498.311 251.048L518.867 211.379C519.189 210.898 519.67 210.576 520.313 210.576C519.831 209.934 518.867 209.934 518.225 210.416C518.064 210.576 517.904 210.737 517.904 210.897L497.186 250.566C496.865 251.208 497.026 252.172 497.829 252.493C497.989 252.653 498.15 252.653 498.311 252.653C498.15 252.172 497.989 251.529 498.311 251.048Z" fill="#70D5BC"/>
<path d="M525.774 217.161L520.314 210.576C519.672 210.576 519.19 210.897 518.869 211.379L498.312 251.047C497.991 251.529 498.151 252.172 498.472 252.653L506.984 253.456C507.627 253.456 508.108 253.135 508.43 252.653L526.096 218.767C526.256 218.285 526.256 217.643 525.774 217.161Z" fill="#58C6AB"/>
<path d="M521.438 226.475C521.599 224.227 518.387 224.869 517.744 229.045C517.102 233.06 516.138 240.769 516.138 240.769C513.247 238.038 505.217 233.381 502.969 234.987C501.684 235.951 501.363 237.878 502.327 239.163C500.881 239.644 500.078 241.411 500.56 242.856C500.56 243.017 500.721 243.178 500.881 243.338C499.596 243.981 498.954 245.587 499.596 246.871C499.757 247.193 500.078 247.514 500.399 247.835C500.881 248.317 501.524 248.799 502.005 249.28C498.472 252.171 496.384 255.383 497.509 258.274C495.903 259.238 494.457 260.201 493.012 261.004C492.209 265.662 493.654 268.231 496.706 269.355C499.596 266.946 502.648 264.698 505.539 262.61C508.911 260.362 516.62 248.638 518.387 247.353C520.153 246.068 520.956 230.651 521.438 226.475Z" fill="#FED8C7"/>
<path d="M493.172 261.164C469.082 275.779 454.146 281.4 439.853 291.999C433.75 276.903 428.771 254.098 424.274 226.475L399.863 255.543C406.93 277.224 422.026 315.286 429.574 319.141C433.75 321.229 444.51 315.447 460.57 301.796C470.848 292.963 483.536 280.115 496.866 269.355C493.814 268.391 492.369 265.661 493.172 261.164Z" fill="#FED8C7"/>
<path d="M454.949 163.841C449.328 173.156 452.861 173.799 444.349 185.201C437.925 194.034 432.786 197.086 429.574 195.801C418.172 191.304 406.608 177.814 413.193 160.79C419.778 143.766 430.377 139.43 442.583 144.248C454.788 149.066 458.482 158.06 454.949 163.841Z" fill="#FED8C7"/>
<path d="M467.636 150.833C466.512 158.381 454.467 162.075 446.116 164.484C422.508 171.711 417.208 163.681 406.287 169.783C387.979 180.062 395.206 205.276 380.591 210.576C370.795 214.109 363.728 209.291 358.268 208.809C352.165 208.327 343.011 207.364 337.068 210.254C324.22 216.518 328.396 233.542 318.439 237.396C309.124 240.929 293.867 230.972 288.246 217.963C281.661 202.867 289.852 188.734 290.816 187.128C292.422 184.559 296.758 177.01 305.591 173.798C320.848 168.017 330.163 181.989 342.689 177.332C356.34 172.192 351.362 154.045 367.101 145.212C379.306 138.466 391.994 149.227 401.148 140.554C404.36 137.503 404.842 134.291 410.463 129.955C414.156 127.064 418.332 124.815 422.829 123.691C438.728 119.676 452.861 131.4 456.715 134.612C461.855 139.109 468.6 144.73 467.636 150.833Z" fill="#2F2E41"/>
<path d="M265.603 492.911C259.821 477.494 251.791 464.646 232.037 456.455C249.061 435.095 337.873 418.554 351.524 397.354C365.175 376.155 350.078 361.862 353.29 332.311C336.267 329.421 314.264 319.624 307.037 312.236C302.541 323.478 296.438 338.575 303.183 356.08C232.358 375.673 185.624 442.965 192.048 454.528C195.581 460.952 217.744 485.845 238.622 509.935C251.149 509.935 259.339 503.029 265.603 492.911Z" fill="#2F2E41"/>
<path d="M305.752 563.735C307.198 550.726 292.583 554.741 287.123 545.908C275.238 527.118 271.705 508.649 265.602 492.91C259.339 503.028 250.988 509.934 238.461 509.934C255.163 529.206 270.902 547.996 275.238 556.187C284.874 574.334 270.099 602.279 273.632 605.812C277.166 609.345 304.307 576.743 305.752 563.735Z" fill="#FED8C7"/>
<path d="M305.752 563.735C306.555 556.026 301.737 554.259 296.597 552.332C295.473 562.61 285.034 576.261 278.61 573.531C277.968 588.467 271.223 603.242 273.792 605.812C277.165 609.345 304.306 576.743 305.752 563.735Z" fill="#2F2E41"/>
<path d="M22.6149 504.955C22.4543 504.955 22.4543 504.955 22.2937 504.955L6.39428 496.925C1.89748 494.677 0.291479 488.092 2.70048 481.99C5.10948 475.887 10.7305 472.354 15.7091 473.799L32.7327 478.938C33.0539 478.938 33.2145 479.259 33.0539 479.581C33.0539 479.902 32.7327 480.062 32.4115 479.902L15.3879 474.763C11.0517 473.478 5.91248 476.85 3.66408 482.311C1.41568 487.771 2.86108 493.874 6.87608 495.801L22.7755 503.831C23.0967 503.992 23.0967 504.313 23.0967 504.634C23.0967 504.795 22.7755 504.955 22.6149 504.955Z" fill="#FFCC4B"/>
<path d="M0.451172 525.031L30.8046 448.906L37.2286 457.418L47.507 455.651L17.1536 531.776L10.8902 523.425L0.451172 525.031Z" fill="#FF9500"/>
<path d="M52.3257 547.516L85.4093 464.646L47.5077 455.652L17.1543 531.777L52.3257 547.516Z" fill="#FFCC4B"/>
<path d="M85.4087 464.645L70.6335 458.703L30.8047 448.906L37.2287 457.418L47.5071 455.651L85.4087 464.645Z" fill="#FFAD12"/>
<path d="M37.5498 541.574L52.325 547.516L17.1536 531.777L10.8902 523.426L0.451172 525.032L37.5498 541.574Z" fill="#FFAD12"/>
<path d="M33.5354 512.183C33.3748 512.183 33.3748 512.183 33.2142 512.022L26.1478 507.043C21.8116 504.313 20.5268 496.926 23.257 490.02C26.1478 482.793 31.1264 479.099 37.0686 479.581L45.5804 480.866C45.9016 480.866 46.0622 481.187 46.0622 481.508C46.0622 481.829 45.741 481.99 45.4198 481.99L36.908 480.705C31.4476 480.223 26.9508 483.596 24.2206 490.341C21.651 496.765 22.7752 503.51 26.6296 506.08L33.696 511.058C34.0172 511.219 34.0172 511.54 33.8566 511.861C33.8566 512.022 33.696 512.183 33.5354 512.183Z" fill="#FFAD12"/>
<path d="M570.26 376.154C569.778 376.154 569.618 375.833 569.618 375.351L572.027 349.173C572.99 342.588 568.333 336.486 561.748 335.522C555.324 334.558 549.221 339.055 548.097 345.479L542.476 371.175C542.316 371.496 541.994 371.818 541.673 371.657C541.352 371.496 541.191 371.175 541.191 370.854L546.812 345.158C548.097 337.77 555.003 332.952 562.391 334.077C569.618 335.361 574.436 341.946 573.472 349.173L571.063 375.351C570.902 375.833 570.742 376.154 570.26 376.154Z" fill="#FFCC4B"/>
<path d="M513.247 362.021L600.132 375.512L593.547 380.169L598.365 386.593L511.48 373.263L518.226 368.445L513.247 362.021Z" fill="#FF9500"/>
<path d="M492.047 473.318L586.64 488.093L598.364 386.593L511.479 373.264L492.047 473.318Z" fill="#FFCC4B"/>
<path d="M494.616 456.454L492.047 473.317L511.479 373.263L518.225 368.445L513.246 362.021L494.616 456.454Z" fill="#FFAD12"/>
<path d="M570.261 395.426C569.779 395.426 569.458 395.105 569.458 394.623L573.152 349.977C573.794 342.589 568.334 336.165 560.946 335.523C554.361 335.041 548.259 339.377 546.813 345.801L536.695 389.484C536.695 389.805 536.214 390.127 535.892 390.127C535.571 390.127 535.25 389.645 535.25 389.324L545.368 345.64C547.295 337.61 555.164 332.632 563.194 334.559C570.261 336.165 575.239 342.91 574.597 350.137L570.903 394.784C570.903 395.105 570.582 395.426 570.261 395.426Z" fill="#FFAD12"/>
<path d="M649.597 140.233C644.297 124.012 648.955 119.515 645.261 112.288C641.728 105.383 634.983 101.207 624.544 96.7102C617.317 91.8922 610.732 86.1106 605.272 79.2048C604.95 78.723 604.469 78.723 603.987 79.0442C603.505 79.3654 603.505 79.8472 603.826 80.329C609.608 87.3954 616.353 93.6588 624.062 98.4768C635.786 127.867 593.227 148.905 577.167 120.961C577.809 112.128 576.845 103.295 574.758 94.783C574.597 94.3012 574.115 93.98 573.633 94.1406C573.152 94.3012 572.83 94.783 572.991 95.2648C575.239 104.098 576.042 113.413 575.239 122.567C575.239 122.727 575.239 122.888 575.239 123.049C572.83 133.006 572.349 140.393 575.721 146.817C579.415 154.205 585.839 153.081 595.475 167.214C605.111 181.346 612.499 225.03 612.499 225.03C639.801 220.212 665.175 207.524 685.572 188.573C685.572 188.573 655.058 156.453 649.597 140.233Z" fill="#58C6AB"/>
<path d="M66.9402 226.315C65.4948 230.49 62.4434 233.863 58.4284 235.469C53.2892 237.396 47.347 236.111 43.332 232.418C45.4198 227.921 49.4348 224.709 54.2528 223.585C58.589 222.621 63.2464 223.585 66.9402 226.315Z" fill="#7E5E0E"/>
<path d="M68.3848 241.894C69.1878 248.157 68.5454 254.421 66.7788 260.363C65.1728 265.341 47.1855 290.716 47.1855 290.716C47.1855 290.716 47.828 297.943 58.1064 291.359C68.3848 284.774 79.6268 262.129 79.6268 262.129C78.6632 248.639 70.312 241.412 68.3848 241.894Z" fill="#7E5E0E"/>
<path d="M56.661 289.912C52.0036 293.927 47.6674 292.321 47.1856 290.875C43.9736 295.854 34.4982 306.132 34.4982 306.132C31.768 309.184 39.798 314.002 43.01 312.556L71.4362 299.226C72.3998 298.745 72.8816 297.781 72.721 296.817C70.7938 285.575 74.327 275.779 79.948 270.961C81.3934 275.297 82.8388 277.867 90.2264 290.393L93.599 288.787C86.5326 276.742 85.8902 265.019 87.0144 249.28C84.1236 243.98 79.145 239.644 68.3848 237.556L66.6182 226.475C64.3698 233.059 50.5582 237.074 43.01 232.577C44.2948 237.717 45.419 243.016 46.222 248.316C54.7338 252.01 64.5304 249.28 68.2242 242.053C72.3998 247.353 75.6118 255.543 74.8088 260.522C74.0058 265.5 70.1514 271.121 67.7424 276.261C65.1728 281.4 61.3184 286.057 56.661 289.912Z" fill="#FFCC4B"/>
<path d="M388.301 610.471L369.189 623.319L370.956 625.728C371.598 626.531 371.598 627.816 370.635 628.458L343.333 646.767C342.369 647.248 341.245 646.927 340.763 645.964L339.157 643.394L320.046 656.242C318.761 657.045 318.279 658.812 319.082 660.096L345.099 707.795C348.472 714.058 356.502 716.467 362.765 712.934C363.086 712.773 363.408 712.613 363.729 712.291L423.793 671.981C429.735 667.966 431.341 659.936 427.326 653.994C427.166 653.672 426.845 653.351 426.684 653.03L392.316 610.953C391.191 609.829 389.585 609.507 388.301 610.471Z" fill="#58C6AB"/>
<path d="M339.639 660.417C339.157 660.417 338.515 660.096 338.354 659.614L318.119 614.967C315.87 610.149 310.089 597.462 323.74 588.308C337.391 579.153 347.027 589.271 350.56 593.126L351.042 593.607L384.286 628.618C384.768 629.261 384.768 630.064 384.286 630.545C383.804 631.027 382.84 631.027 382.359 630.545L348.633 595.053C345.26 591.359 337.23 582.687 325.346 590.556C313.461 598.425 318.601 609.186 320.688 613.682L321.01 614.325L340.924 658.49C341.245 659.132 340.924 660.096 340.282 660.417C340.121 660.417 339.96 660.417 339.639 660.417Z" fill="#70D5BC"/>
<path d="M377.379 624.283L380.752 622.034C381.233 621.713 382.036 621.874 382.358 622.356L389.745 633.276C390.066 633.758 389.906 634.561 389.424 634.882L386.051 637.131C385.57 637.452 384.767 637.291 384.445 636.81L377.058 625.889C376.737 625.407 376.897 624.765 377.379 624.283Z" fill="#70D5BC"/>
<path d="M333.695 653.671L337.068 651.423C337.55 651.102 338.353 651.262 338.674 651.744L346.062 662.665C346.383 663.147 346.222 663.95 345.74 664.271L342.368 666.519C341.886 666.841 341.083 666.68 340.762 666.198L333.374 655.277C333.053 654.796 333.214 654.153 333.695 653.671Z" fill="#70D5BC"/>
<path d="M133.91 349.013L168.921 334.077C169.885 333.756 170.848 334.077 171.169 335.041L179.681 355.116C180.002 356.08 179.681 357.043 178.718 357.364L143.707 372.3C142.743 372.621 141.78 372.3 141.458 371.337L132.947 351.262C132.625 350.459 132.947 349.334 133.91 349.013Z" fill="#58C6AB"/>
<path d="M172.7 346.116L162.355 350.518L163.55 353.325L173.895 348.924L172.7 346.116Z" fill="#70D5BC"/>
<path d="M175.641 351.834L142.537 365.918L142.914 366.805L176.018 352.721L175.641 351.834Z" fill="#70D5BC"/>
<path d="M151.831 365.672L143.998 369.004L144.375 369.891L152.208 366.558L151.831 365.672Z" fill="#70D5BC"/>
<path d="M172.423 337.866L134.146 354.15L135.97 358.436L174.246 342.152L172.423 337.866Z" fill="#70D5BC"/>
<path d="M434.072 486.006L434.232 486.488C435.196 489.378 434.072 494.036 429.414 499.336C429.254 499.496 429.254 499.657 429.093 499.657L423.633 485.524C427.969 481.991 432.626 482.633 434.072 486.006Z" fill="#70D5BC"/>
<path d="M438.568 522.623C427.647 535.31 409.499 531.616 409.499 531.616L400.506 508.49C400.506 508.49 418.172 512.184 429.253 499.818C429.414 499.657 429.414 499.496 429.574 499.496C434.232 494.036 435.356 489.539 434.392 486.648L443.065 509.132C444.35 512.023 443.547 516.841 438.568 522.623Z" fill="#58C6AB"/>
<path d="M431.662 500.62C439.21 499.335 442.744 510.738 441.619 513.95C442.262 512.183 442.743 510.256 442.743 508.329L435.838 490.342C435.517 494.196 434.071 497.729 431.662 500.62Z" fill="#70D5BC"/>
<path d="M426.202 505.438C420.42 509.131 413.836 511.059 407.091 511.059C406.769 512.343 405.806 513.307 404.682 513.789L409.821 527.119C411.266 527.6 412.551 528.564 413.193 530.009C422.026 530.973 430.859 527.761 437.123 521.498C426.523 523.264 423.793 509.131 426.202 505.438Z" fill="#70D5BC"/>
<path d="M419.267 519.549C420.053 519.407 420.511 518.301 420.29 517.079C420.069 515.857 419.253 514.982 418.467 515.124C417.682 515.266 417.224 516.371 417.445 517.594C417.666 518.816 418.482 519.691 419.267 519.549Z" fill="#58C6AB"/>
<path d="M439.029 499.223C439.274 499.119 439.19 498.373 438.841 497.557C438.493 496.742 438.012 496.165 437.767 496.27C437.523 496.374 437.607 497.12 437.955 497.936C438.304 498.752 438.785 499.328 439.029 499.223Z" fill="#58C6AB"/>
<path d="M146.918 607.579L146.436 607.74C143.546 608.703 140.655 612.397 139.209 619.464C139.209 619.624 139.209 619.785 139.049 619.945L153.503 615.609C153.824 609.988 150.451 606.776 146.918 607.579Z" fill="#70D5BC"/>
<path d="M115.28 626.691C112.068 643.233 126.041 655.117 126.041 655.117L149.809 647.89C149.809 647.89 135.998 636.166 138.889 619.946C138.889 619.785 138.889 619.625 139.049 619.464C140.495 612.398 143.385 608.864 146.276 607.74L123.15 614.646C120.098 615.449 116.886 619.143 115.28 626.691Z" fill="#58C6AB"/>
<path d="M136.96 618.499C133.266 611.754 122.185 615.93 120.258 618.82C121.221 617.214 122.506 615.769 123.952 614.484L142.26 608.863C139.53 611.433 137.603 614.805 136.96 618.499Z" fill="#70D5BC"/>
<path d="M136.479 625.727C137.121 632.472 139.691 638.896 143.866 644.356C143.063 645.32 142.903 646.765 143.224 648.05L129.573 652.226C128.288 651.423 126.843 651.101 125.237 651.262C118.973 644.838 116.082 636.005 117.207 627.172C122.346 636.487 135.194 629.902 136.479 625.727Z" fill="#70D5BC"/>
<path d="M132.202 639.378C133.43 639.193 134.33 638.403 134.211 637.614C134.092 636.824 133 636.334 131.772 636.519C130.544 636.704 129.645 637.493 129.764 638.283C129.883 639.072 130.974 639.562 132.202 639.378Z" fill="#58C6AB"/>
<path d="M135.697 611.711C136.52 611.38 137.107 610.911 137.007 610.664C136.908 610.417 136.16 610.486 135.338 610.817C134.515 611.148 133.928 611.616 134.027 611.863C134.127 612.11 134.874 612.042 135.697 611.711Z" fill="#58C6AB"/>
<path d="M360.195 49.9755L360.516 49.4937C362.122 47.0847 365.976 45.3181 372.561 45.6393C372.722 45.6393 372.882 45.6393 373.043 45.6393L365.976 57.5237C360.677 56.7207 358.589 53.0269 360.195 49.9755Z" fill="#70D5BC"/>
<path d="M384.284 26.0464C399.702 26.8494 407.25 41.9458 407.25 41.9458L395.526 61.539C395.526 61.539 388.139 46.6032 373.042 45.6396C372.882 45.6396 372.721 45.6396 372.561 45.6396C365.976 45.3184 362.122 47.085 360.516 49.494L371.918 30.3826C373.203 27.813 377.057 25.7252 384.284 26.0464Z" fill="#58C6AB"/>
<path d="M372.079 43.5525C366.94 38.8951 373.043 29.7409 376.094 28.7773C374.488 29.2591 372.882 30.0621 371.437 31.1863L362.443 46.2827C365.334 44.1949 368.707 43.2313 372.079 43.5525Z" fill="#70D5BC"/>
<path d="M378.664 44.677C384.606 46.7648 389.745 50.4586 393.6 55.4372C394.724 54.9554 396.009 55.116 396.972 55.7584L403.718 44.5164C403.236 43.2316 403.236 41.7862 403.878 40.5014C399.542 33.5956 392.315 28.9382 384.124 27.9746C391.351 34.3986 382.679 44.3558 378.664 44.677Z" fill="#70D5BC"/>
<path d="M392.271 44.8291C392.898 44.2022 393 43.2871 392.499 42.7851C391.997 42.2832 391.082 42.3845 390.454 43.0114C389.827 43.6383 389.725 44.5534 390.226 45.0554C390.728 45.5573 391.643 45.456 392.271 44.8291Z" fill="#58C6AB"/>
<path d="M366.398 41.0971C366.764 40.2891 366.93 39.5748 366.768 39.5016C366.607 39.4284 366.179 40.0241 365.813 40.832C365.447 41.64 365.281 42.3543 365.443 42.4274C365.605 42.5006 366.032 41.905 366.398 41.0971Z" fill="#58C6AB"/>
<path d="M273.631 129.153C277.977 129.153 281.501 125.63 281.501 121.283C281.501 116.937 277.977 113.414 273.631 113.414C269.285 113.414 265.762 116.937 265.762 121.283C265.762 125.63 269.285 129.153 273.631 129.153Z" fill="#FF9500"/>
<path d="M273.631 127.706C277.977 127.706 281.501 124.182 281.501 119.836C281.501 115.49 277.977 111.967 273.631 111.967C269.285 111.967 265.762 115.49 265.762 119.836C265.762 124.182 269.285 127.706 273.631 127.706Z" fill="#FFCC4B"/>
<path d="M273.631 126.421C277.268 126.421 280.216 123.473 280.216 119.837C280.216 116.2 277.268 113.252 273.631 113.252C269.995 113.252 267.047 116.2 267.047 119.837C267.047 123.473 269.995 126.421 273.631 126.421Z" fill="#FFAD12"/>
<path d="M280.056 120.159C280.056 120.319 280.056 120.48 280.056 120.48C279.896 116.786 276.684 113.895 272.99 114.217C269.617 114.377 266.887 117.107 266.727 120.48C266.727 120.319 266.727 120.159 266.727 120.159C266.727 116.465 269.778 113.574 273.472 113.574C277.005 113.574 279.896 116.465 280.056 120.159Z" fill="#FF9500"/>
<path d="M155.108 486.326C159.543 486.326 163.138 482.73 163.138 478.296C163.138 473.861 159.543 470.266 155.108 470.266C150.673 470.266 147.078 473.861 147.078 478.296C147.078 482.73 150.673 486.326 155.108 486.326Z" fill="#FF9500"/>
<path d="M155.108 486.326C159.543 486.326 163.138 482.73 163.138 478.296C163.138 473.861 159.543 470.266 155.108 470.266C150.673 470.266 147.078 473.861 147.078 478.296C147.078 482.73 150.673 486.326 155.108 486.326Z" fill="#FFCC4B"/>
<path d="M155.11 484.721C158.657 484.721 161.534 481.845 161.534 478.297C161.534 474.749 158.657 471.873 155.11 471.873C151.562 471.873 148.686 474.749 148.686 478.297C148.686 481.845 151.562 484.721 155.11 484.721Z" fill="#FFAD12"/>
<path d="M162.015 477.814C162.015 477.974 162.015 478.135 162.015 478.135C161.855 474.441 158.643 471.55 154.949 471.871C151.576 472.032 148.846 474.762 148.686 478.135C148.686 477.974 148.686 477.814 148.686 477.814C148.686 474.12 151.737 471.068 155.431 471.068C158.964 471.068 162.015 474.12 162.015 477.814Z" fill="#FF9500"/>
<path d="M353.13 453.081C357.564 453.081 361.16 449.486 361.16 445.051C361.16 440.617 357.564 437.021 353.13 437.021C348.695 437.021 345.1 440.617 345.1 445.051C345.1 449.486 348.695 453.081 353.13 453.081Z" fill="#FF9500"/>
<path d="M353.13 453.081C357.564 453.081 361.16 449.486 361.16 445.051C361.16 440.617 357.564 437.021 353.13 437.021C348.695 437.021 345.1 440.617 345.1 445.051C345.1 449.486 348.695 453.081 353.13 453.081Z" fill="#FFCC4B"/>
<path d="M353.129 451.477C356.677 451.477 359.553 448.601 359.553 445.053C359.553 441.505 356.677 438.629 353.129 438.629C349.581 438.629 346.705 441.505 346.705 445.053C346.705 448.601 349.581 451.477 353.129 451.477Z" fill="#FFAD12"/>
<path d="M359.552 444.571C359.552 444.731 359.552 444.892 359.552 444.892C359.392 441.198 356.18 438.308 352.486 438.629C349.113 438.789 346.383 441.52 346.223 444.892C346.223 444.732 346.223 444.571 346.223 444.571C346.223 440.877 349.274 437.986 352.968 437.986C356.501 438.147 359.552 441.038 359.552 444.571Z" fill="#FF9500"/>
</svg>
